<?xml version="1.0" standalone="no"?>
<!DOCTYPE svg PUBLIC "-//W3C//DTD SVG 20010904//EN"
 "http://www.w3.org/TR/2001/REC-SVG-20010904/DTD/svg10.dtd">
<svg version="1.0" xmlns="http://www.w3.org/2000/svg"
 width="1202.000000pt" height="507.000000pt" viewBox="0 0 1202.000000 507.000000"
 preserveAspectRatio="xMidYMid meet">
<metadata>
Created by potrace 1.16, written by Peter Selinger 2001-2019
</metadata>
<g transform="translate(0.000000,507.000000) scale(0.100000,-0.100000)"
fill="#000000" stroke="none">
<path d="M144 5045 c-18 -27 -19 -101 -11 -545 1 -80 0 -217 -2 -305 -4 -152
6 -373 29 -640 6 -66 8 -169 5 -230 -6 -109 -18 -680 -17 -805 1 -125 1 -326
0 -410 -1 -47 2 -126 7 -177 6 -72 4 -110 -10 -181 -16 -85 -16 -97 0 -224 12
-94 16 -185 13 -313 -1 -99 -1 -379 1 -622 4 -425 5 -443 24 -460 16 -16 35
-18 131 -15 213 7 282 6 422 -5 186 -15 237 -44 162 -92 l-33 -21 95 0 95 0
-31 19 c-45 27 -47 35 -18 62 34 32 145 39 230 14 48 -14 77 -16 154 -9 152
12 436 5 505 -12 50 -13 111 -15 380 -10 176 4 347 7 380 8 33 0 105 -3 160
-7 75 -5 121 -3 184 9 57 11 139 16 260 16 133 0 182 3 196 14 34 25 45 173
40 556 -3 190 -7 390 -10 445 -7 124 3 198 27 203 12 2 19 -5 24 -22 7 -29 24
-26 24 4 0 11 12 27 26 36 34 23 -30 23 1754 1 122 -2 151 -5 185 -22 l40 -20
-4 -492 c-4 -560 -9 -526 81 -559 51 -19 72 -20 508 -15 656 7 714 7 1475 -4
380 -5 760 -7 845 -5 301 10 926 5 1100 -8 121 -9 469 -13 1135 -15 1074 -2
1004 -7 1040 69 16 33 17 83 17 543 1 278 1 661 2 851 0 190 0 397 0 460 1 63
-5 178 -12 256 -10 108 -10 179 -2 305 6 90 16 371 21 624 5 253 12 530 15
615 8 228 8 519 -1 740 l-8 195 -39 38 c-76 73 -182 107 -276 88 -125 -24
-437 -33 -742 -20 -219 9 -312 9 -360 1 -36 -6 -128 -14 -205 -18 -113 -5
-156 -3 -225 11 -74 15 -133 17 -455 14 -537 -5 -781 -1 -860 11 -57 10 -95 9
-200 -4 -112 -13 -257 -15 -1068 -11 -610 3 -974 8 -1040 16 -56 6 -224 12
-373 13 -254 1 -273 0 -293 -18 -12 -11 -21 -31 -21 -46 0 -15 -9 -71 -21
-126 -18 -87 -20 -133 -20 -419 0 -319 0 -320 -26 -398 -32 -96 -53 -114 -104
-93 -32 13 -38 12 -94 -12 l-60 -27 -246 3 c-136 2 -291 -2 -347 -8 -83 -9
-124 -8 -224 4 -96 12 -206 15 -503 13 -404 -3 -432 -1 -455 44 -7 13 -10 45
-8 78 4 39 -1 71 -15 111 -18 51 -20 84 -21 482 -1 366 -3 429 -16 442 -12 11
-73 14 -335 16 -435 3 -1154 -6 -1187 -15 -15 -4 -71 0 -129 10 -61 10 -128
15 -166 12 -34 -2 -109 2 -165 11 -57 8 -121 14 -143 13 -22 -2 -152 -4 -290
-6 -137 -2 -307 -7 -376 -11 -95 -5 -151 -2 -228 10 -56 9 -142 16 -191 16
-85 0 -90 -1 -106 -25z m6191 -149 c69 -1 72 -3 67 -36 -4 -24 -87 -33 -361
-35 l-283 -3 -14 34 c-8 18 -14 36 -14 38 0 10 111 13 320 8 118 -3 247 -5
285 -6z m620 -7 c56 -11 83 -24 72 -36 -12 -11 -337 -17 -463 -8 -93 6 -104 9
-104 26 0 24 21 29 160 32 150 3 273 -2 335 -14z m-6274 -48 c161 -5 184 -8
187 -23 2 -9 -6 -26 -17 -37 -20 -20 -33 -21 -268 -23 -220 -1 -321 -1 -345 1
-13 1 -9 68 5 79 18 15 79 20 173 15 45 -3 164 -8 265 -12z m1514 0 c149 -5
370 -10 493 -10 242 -1 242 -1 228 -57 l-7 -26 -234 7 c-155 5 -235 4 -235 -2
0 -6 18 -22 40 -37 22 -14 40 -33 40 -41 0 -17 -42 -81 -70 -105 -18 -15 -18
-18 -4 -24 8 -3 57 -6 107 -6 l92 0 -25 20 c-14 11 -41 30 -60 43 -19 13 -35
29 -35 37 0 7 21 28 48 47 l47 33 38 -24 c20 -13 46 -33 56 -45 19 -21 19 -21
-24 -61 -24 -22 -41 -40 -39 -41 22 -5 181 -4 184 2 3 4 -11 14 -31 24 -39 18
-50 36 -37 58 14 26 94 87 113 87 24 0 130 -70 130 -86 0 -7 -18 -27 -40 -44
-22 -17 -38 -36 -34 -41 3 -5 24 -9 48 -9 l43 0 7 -132 c3 -73 1 -272 -6 -443
-6 -170 -11 -371 -10 -446 1 -160 -3 -171 -69 -172 -138 0 -312 4 -308 8 3 2
75 5 161 6 102 0 162 5 172 12 13 10 17 42 21 177 8 270 8 960 1 968 -4 4
-186 8 -404 10 -412 2 -655 -9 -704 -35 -27 -13 -28 -16 -30 -106 -9 -480 -1
-955 18 -1019 4 -15 22 -16 187 -11 100 2 207 0 237 -5 43 -8 3 -10 -187 -11
-273 -1 -273 -1 -273 72 -1 23 -2 268 -3 544 l-2 502 29 30 c16 17 45 36 63
42 34 11 34 11 17 37 -9 15 -30 39 -47 53 l-31 26 45 47 c24 26 45 51 47 56 6
17 -138 22 -528 19 -420 -4 -483 1 -497 37 -10 26 16 39 90 44 115 8 877 2
1172 -9z m3546 -48 c13 -21 27 -48 31 -61 7 -23 10 -276 9 -649 l-1 -193 -34
0 c-18 0 -39 6 -45 14 -12 14 -16 908 -4 920 12 12 21 5 44 -31z m1826 -4 c21
-22 42 -47 46 -55 15 -26 37 -14 59 31 12 25 29 45 37 45 8 0 35 -13 60 -29
25 -16 56 -32 69 -36 12 -3 22 -10 22 -14 0 -15 -102 -121 -117 -121 -9 0 -40
18 -70 41 l-54 40 -45 -26 c-55 -32 -76 -29 -135 23 l-43 39 53 52 c30 28 60
51 67 51 7 0 30 -18 51 -41z m1071 24 c39 -9 102 -51 102 -67 0 -17 -106 -116
-125 -116 -7 0 -20 11 -29 25 -9 13 -25 29 -36 35 -18 9 -26 5 -56 -28 l-35
-39 -46 24 c-26 12 -51 23 -57 23 -6 0 -19 7 -28 14 -16 12 -16 16 -3 42 8 16
30 44 49 63 l35 34 57 -39 c53 -37 57 -38 68 -20 27 45 49 67 63 62 8 -4 27
-9 41 -13z m286 -24 c25 -22 46 -46 46 -52 -1 -7 -20 -33 -44 -59 l-42 -46
-54 47 c-50 44 -52 48 -40 71 17 34 61 80 75 80 7 0 33 -18 59 -41z m-895 -7
c67 -56 76 -57 113 -17 17 19 39 35 49 35 18 0 89 -55 89 -70 0 -4 -17 -27
-39 -51 -42 -48 -50 -48 -114 3 l-29 23 -32 -38 -32 -38 -48 20 c-26 12 -53
21 -60 21 -7 0 -20 6 -30 13 -16 12 -17 17 -6 36 13 26 79 101 88 101 3 0 26
-17 51 -38z m1169 -3 c34 -23 62 -46 62 -52 0 -15 -90 -97 -107 -97 -18 0
-123 91 -123 106 0 17 72 84 91 84 9 0 44 -19 77 -41z m-8306 -77 c14 -11 16
-24 12 -56 -12 -89 -40 -110 -89 -69 -18 16 -42 36 -54 46 -21 16 -21 20 -8
40 38 58 98 75 139 39z m-194 -25 c23 -23 42 -48 42 -54 0 -6 -20 -29 -45 -51
-25 -22 -41 -43 -36 -47 11 -6 283 -14 701 -19 140 -2 263 -6 272 -10 9 -4 19
-15 23 -24 10 -28 27 -1055 18 -1092 -16 -60 -30 -62 -283 -54 -124 4 -250 8
-280 9 -30 0 -163 2 -295 4 -280 3 -299 5 -320 37 -14 22 -14 45 0 251 8 125
15 317 16 427 0 170 5 264 22 446 2 21 8 26 43 30 l41 5 -21 31 c-11 17 -29
43 -40 58 -23 33 -16 50 31 75 54 28 64 26 111 -22z m388 -3 c24 -19 44 -39
44 -44 0 -13 -50 -59 -83 -76 -27 -15 -29 -14 -68 24 -21 22 -39 48 -39 59 0
21 64 73 89 73 8 0 34 -16 57 -36z m5969 -63 l70 -6 -3 -170 c-2 -93 1 -253 8
-355 9 -147 8 -233 -3 -418 -9 -148 -18 -237 -25 -244 -15 -15 -399 -16 -873
-4 l-317 8 -6 38 c-3 20 -8 270 -11 556 -3 285 -8 527 -11 537 -7 22 21 23 30
1 3 -9 7 -250 7 -537 1 -287 4 -535 8 -552 l6 -30 505 4 c278 3 534 5 569 5
63 1 65 2 73 31 4 17 7 271 5 565 l-2 535 -70 8 c-42 5 -153 4 -275 -3 -190
-10 -562 -2 -577 14 -3 3 124 5 283 5 159 -1 316 3 349 9 69 11 160 12 260 3z
m2811 -33 c10 -10 18 -80 28 -242 8 -126 13 -232 11 -236 -2 -3 -7 -150 -11
-325 -7 -340 -10 -357 -57 -368 -23 -6 -887 0 -893 6 -10 10 387 27 621 26
304 -1 289 -5 299 79 3 26 7 254 8 507 1 335 -1 471 -10 502 l-12 41 -77 7
c-68 7 -506 1 -753 -10 -77 -3 -87 -2 -55 6 88 22 225 28 549 24 267 -3 342
-6 352 -17z m-2150 0 c5 -7 1 -9 -13 -6 -35 9 -322 -8 -336 -21 -17 -14 -25
-54 -38 -191 -20 -220 -28 -404 -28 -672 l-1 -278 28 -1 c160 -5 678 3 752 10
52 6 143 11 201 11 119 0 164 11 173 43 3 11 3 53 1 92 -6 119 -6 358 1 635 4
146 4 281 1 300 l-7 35 -147 1 c-80 1 -189 6 -242 10 -94 8 -92 9 104 15 110
3 225 3 255 0 l55 -6 5 -205 c6 -265 -3 -916 -13 -926 -4 -5 -54 -11 -110 -15
-56 -4 -140 -12 -187 -17 -47 -6 -266 -10 -490 -9 l-405 2 3 395 c1 217 5 422
8 455 7 70 43 324 49 343 6 17 370 18 381 0z m3209 2 c275 -10 351 -18 365
-39 3 -6 12 -104 18 -219 7 -114 18 -238 24 -277 11 -73 6 -293 -11 -502 -10
-113 -24 -154 -59 -168 -25 -10 -221 -17 -197 -7 11 5 54 9 95 11 109 3 112 6
134 148 17 106 18 153 12 394 -6 258 -31 596 -45 611 -22 24 -635 52 -836 38
-147 -10 -269 -30 -285 -46 -7 -7 -13 -143 -17 -390 -11 -747 -12 -737 29
-748 13 -3 207 -6 432 -6 306 0 407 -3 399 -11 -9 -9 -122 -10 -415 -7 -443 5
-460 7 -474 65 -4 15 -3 272 2 570 7 413 13 546 22 555 15 15 238 35 412 36
63 1 241 -3 395 -8z m-2067 -14 c3 -3 -22 -6 -56 -6 -62 0 -111 -15 -113 -34
-3 -23 -12 -621 -13 -861 l-1 -250 125 1 c145 2 125 -11 -35 -22 -82 -5 -104
-4 -111 7 -9 16 -8 738 2 982 6 147 8 158 28 169 38 21 157 30 174 14z m-1863
-15 c33 -7 23 -9 -55 -10 -125 -2 -230 -12 -230 -22 0 -5 10 -9 23 -9 19 0 16
-5 -24 -45 -46 -44 -59 -75 -59 -136 0 -18 5 -29 14 -29 9 0 15 17 18 50 3 33
14 61 33 85 15 20 29 34 32 32 2 -3 -5 -39 -16 -79 -26 -91 -26 -124 -3 -163
10 -16 24 -49 32 -73 13 -42 26 -59 36 -49 6 6 -34 129 -47 142 -14 14 -11 81
6 134 7 25 19 65 26 89 11 38 15 42 45 42 18 0 39 3 48 6 11 4 28 -14 59 -63
23 -37 49 -83 56 -100 7 -18 20 -33 27 -33 27 0 13 44 -36 117 -27 40 -50 75
-50 77 0 3 29 6 65 8 l65 3 -2 -230 -3 -230 -49 -3 c-27 -2 -53 1 -58 6 -5 5
6 33 27 67 36 61 41 75 26 75 -5 0 -23 -24 -40 -52 -53 -91 -65 -102 -88 -87
-20 12 -20 14 19 63 49 62 80 122 76 147 -5 33 -23 24 -29 -14 -6 -40 -23 -67
-86 -145 -66 -81 -64 -82 83 -82 l125 0 -3 -27 c-3 -27 -6 -28 -70 -34 -38 -3
-70 -8 -73 -11 -8 -8 16 -69 53 -130 48 -81 52 -123 15 -190 -16 -30 -49 -80
-74 -111 l-44 -56 -110 -1 c-60 0 -120 -3 -132 -6 -22 -6 -23 -4 -23 75 0 65
-3 81 -15 81 -12 0 -15 -16 -15 -80 l0 -80 -45 0 -45 0 0 50 c0 38 -4 50 -15
50 -12 0 -15 -13 -15 -55 0 -48 -3 -55 -19 -55 -17 0 -20 8 -23 53 -3 51 -4
52 -37 55 -18 2 -38 -1 -44 -7 -8 -8 -2 -11 22 -11 32 0 32 -1 29 -42 l-3 -43
-206 -3 -207 -2 -6 22 c-14 55 -9 64 35 60 35 -4 40 -2 37 13 -6 31 -33 41
-54 20 -18 -18 -19 -18 -22 0 -2 9 2 28 9 42 10 18 10 26 1 35 -27 27 -14 87
32 151 24 34 51 78 60 97 25 55 65 71 184 78 73 3 102 2 102 -7 0 -6 6 -11 14
-11 16 0 26 -21 26 -56 0 -15 6 -24 15 -24 10 0 15 11 15 35 0 25 6 37 21 46
16 8 18 14 10 22 -9 9 -81 12 -247 11 l-234 -2 0 28 0 28 233 -2 232 -1 -2 88
c-2 80 -1 87 17 87 18 0 20 -7 20 -90 0 -76 2 -90 16 -90 14 0 16 12 12 90
l-4 90 42 0 c39 0 43 -2 46 -27 2 -14 9 -28 16 -31 9 -3 12 40 12 192 l0 195
93 4 c185 6 263 6 302 -2z m2545 1 c0 -4 -22 -33 -50 -64 -46 -51 -65 -98 -40
-98 6 0 10 6 10 14 0 8 22 41 50 73 27 32 50 64 50 72 0 10 14 12 61 9 55 -4
64 -8 90 -39 16 -19 29 -40 29 -46 0 -26 -27 -12 -63 32 -21 25 -42 45 -47 45
-5 0 -25 -24 -45 -54 -34 -52 -61 -141 -44 -151 8 -5 11 4 24 59 8 36 56 107
70 103 18 -6 83 -99 89 -129 3 -15 3 -48 0 -72 -5 -36 -16 -54 -60 -97 -49
-48 -67 -79 -46 -79 4 0 33 26 65 58 41 42 57 65 57 85 0 33 13 35 33 3 17
-25 12 -35 -61 -115 -17 -18 -20 -27 -11 -30 17 -5 95 83 115 129 28 63 3 159
-62 247 -13 17 -24 34 -24 37 0 12 77 5 96 -8 18 -13 19 -30 22 -224 4 -197 3
-209 -15 -210 -10 -1 -89 1 -175 4 l-158 6 0 35 c0 47 -24 38 -28 -10 -3 -37
-4 -37 -47 -37 -53 0 -60 14 -50 106 4 40 3 64 -3 64 -10 0 -23 -95 -19 -138
l2 -22 -235 -5 c-268 -4 -287 -1 -321 66 -20 40 -39 51 -39 24 0 -27 44 -84
80 -103 33 -17 64 -18 522 -18 l487 1 -3 -255 c-2 -140 -4 -274 -5 -297 l-1
-43 -54 0 c-76 0 -79 23 -15 98 29 33 37 66 19 77 -5 3 -10 -3 -10 -14 0 -11
-5 -23 -11 -26 -24 -15 -69 -90 -69 -115 0 -24 -5 -28 -37 -33 -45 -8 -53 -3
-53 34 0 16 -4 29 -10 29 -12 0 -24 -45 -15 -59 4 -7 -14 -11 -54 -11 -71 0
-82 11 -70 74 9 47 -6 75 -16 30 -11 -49 -13 -51 -39 -56 l-26 -5 0 243 0 244
31 0 c20 0 29 4 27 13 -3 6 -10 12 -16 11 -7 -1 -66 -2 -132 -2 -72 -1 -120
-6 -120 -12 0 -6 39 -10 96 -10 l95 0 -3 -37 -3 -38 -52 -3 c-38 -2 -53 -7
-53 -18 0 -10 13 -14 50 -14 41 0 50 -3 50 -18 0 -11 -11 -21 -31 -27 -37 -12
-35 -31 4 -27 24 2 27 -1 27 -27 0 -25 -5 -29 -32 -34 -25 -4 -37 0 -49 16
l-17 20 -6 -21 c-10 -32 -33 -27 -40 9 -6 34 -26 31 -26 -5 0 -12 -6 -28 -12
-35 -10 -11 -10 -14 0 -18 22 -8 13 -38 -17 -56 -44 -26 -58 -22 -63 18 -2 19
0 35 4 35 11 0 10 92 -2 110 -11 17 -13 10 -10 -39 1 -18 -3 -37 -10 -41 -14
-9 -36 -131 -27 -153 4 -10 17 -17 31 -17 40 0 56 -11 56 -36 0 -22 -4 -24
-55 -24 -48 0 -57 3 -64 23 -9 23 -10 23 -26 -28 -6 -22 48 -28 202 -23 95 3
137 8 143 18 10 16 30 4 30 -19 0 -17 -15 -19 -167 -25 -526 -20 -503 -20
-503 -2 0 13 12 16 74 16 41 0 78 4 81 10 7 11 -11 48 -70 145 -24 39 -49 87
-56 107 -15 44 -7 56 73 115 47 34 60 53 37 53 -6 0 -41 -23 -77 -51 -56 -45
-64 -48 -58 -28 3 13 9 176 13 362 7 385 -3 351 101 345 l52 -3 -55 -62 c-52
-58 -66 -83 -46 -83 11 0 121 125 121 138 0 14 27 18 91 14 55 -4 57 -5 79
-47 12 -24 25 -58 29 -77 4 -18 12 -33 19 -32 7 1 39 2 72 3 46 1 60 5 60 16
0 11 -11 14 -50 10 -28 -2 -54 -6 -59 -9 -4 -3 -17 20 -28 52 -11 31 -24 65
-28 75 -6 15 -1 17 47 17 l54 0 -4 -35 c-3 -21 0 -35 7 -35 6 0 11 11 11 25 0
16 6 25 15 25 8 0 15 7 15 15 0 21 56 20 64 -1 3 -9 6 -31 6 -50 0 -32 2 -34
38 -35 35 -1 36 -2 8 -8 -36 -7 -36 -25 -1 -29 23 -3 25 -7 25 -52 0 -27 4
-51 9 -55 13 -7 23 86 19 173 l-3 71 35 4 c69 7 130 7 130 -1z m-2972 -119
c-3 -128 -6 -133 -64 -119 -23 6 -24 9 -24 106 l0 99 38 3 c23 2 36 8 35 16
-2 6 2 12 7 12 7 0 10 -42 8 -117z m1332 97 c74 -6 223 -13 332 -17 l196 -6
-1 -521 -2 -521 -80 -2 c-44 -1 -150 -7 -235 -13 -85 -6 -293 -13 -463 -16
l-307 -5 -11 28 c-19 47 -2 611 25 883 3 25 8 72 11 106 4 33 10 67 15 74 17
28 236 32 520 10z m2664 -17 c28 -20 69 -53 91 -74 26 -25 45 -35 53 -30 19
11 -16 51 -84 96 -30 20 -54 38 -52 40 2 2 57 1 123 -2 109 -6 117 -7 97 -21
-22 -14 -30 -42 -13 -42 5 0 21 14 35 31 23 27 31 30 73 27 41 -3 48 -6 46
-23 -15 -122 -15 -135 -4 -135 6 0 11 12 12 28 1 35 8 74 15 81 8 8 22 -19 41
-81 25 -84 46 -73 24 12 -5 19 -12 53 -15 74 l-5 39 87 -6 c48 -4 103 -10 123
-13 l35 -6 17 -157 c21 -190 22 -291 4 -291 -17 0 -97 -75 -97 -90 0 -20 78
-90 101 -90 19 0 19 -6 15 -167 -2 -93 -9 -181 -15 -196 -6 -16 -11 -43 -11
-62 0 -39 -5 -41 -127 -51 l-83 -7 0 51 c0 28 -4 53 -9 56 -11 7 -24 -59 -16
-84 6 -18 -2 -19 -195 -17 l-201 2 48 42 48 42 33 -20 c31 -18 52 -18 52 0 0
14 -77 43 -96 37 -11 -3 -43 -29 -73 -56 -52 -49 -55 -50 -115 -50 -62 1 -96
15 -89 38 3 6 -1 12 -8 12 -6 0 -18 8 -25 18 -12 15 -13 12 -14 -23 l0 -40
-102 3 c-151 4 -145 1 -153 74 -3 35 -5 97 -3 140 l3 76 60 -24 c33 -14 71
-27 85 -29 14 -2 43 -11 65 -18 40 -14 40 -14 43 -70 3 -64 18 -76 23 -19 9
90 5 96 -74 121 -40 13 -95 32 -122 42 -28 11 -56 19 -63 19 -8 0 -12 23 -12
78 l0 77 55 42 c63 49 63 56 -1 123 l-43 45 -2 195 c-1 107 -1 202 0 210 1 12
27 20 104 33 129 22 144 22 152 -2 3 -11 1 -49 -6 -85 -11 -67 -7 -102 11 -91
5 3 10 29 10 56 0 28 5 70 11 94 9 36 16 45 38 48 14 2 30 5 35 6 4 0 31 -16
60 -36z m-4114 -93 l0 -100 -60 0 c-33 0 -60 -4 -60 -9 0 -10 48 -21 91 -21
24 0 29 -4 29 -25 0 -25 -1 -25 -80 -25 -51 0 -80 -4 -80 -11 0 -6 9 -13 20
-16 11 -3 18 -9 15 -13 -7 -11 22 -21 41 -13 23 8 34 -14 34 -69 l0 -48 -158
0 -158 0 -50 53 c-74 77 -84 97 -84 171 0 35 4 66 9 68 4 2 32 38 61 81 l52
77 189 0 189 0 0 -100z m-6020 70 c15 -11 35 -36 45 -57 l18 -37 -43 -37 c-24
-21 -54 -43 -67 -50 -22 -12 -27 -11 -44 11 -10 14 -28 42 -39 62 l-20 38 23
21 c12 11 34 28 50 37 15 9 27 20 27 24 0 14 21 9 50 -12z m1926 14 c21 -6 21
-7 -15 -60 -20 -29 -44 -53 -53 -54 -9 0 -60 24 -114 53 l-97 52 124 5 c68 3
126 7 129 8 3 1 15 -1 26 -4z m208 -38 c10 -25 34 -63 54 -85 l37 -40 127 11
c70 6 131 9 134 5 7 -7 2 -29 -51 -211 l-38 -128 19 -36 c10 -19 42 -51 71
-70 46 -30 53 -39 53 -67 0 -24 -6 -35 -23 -42 -13 -6 -55 -31 -93 -56 l-69
-44 -13 -94 c-7 -52 -12 -110 -12 -129 0 -66 -7 -67 -117 -32 -128 42 -153 42
-187 -2 -44 -58 -30 -77 19 -26 16 17 36 30 44 30 9 0 61 -16 116 -35 l100
-34 -216 0 -216 -1 -6 40 c-8 60 -65 176 -79 162 -9 -9 -2 -32 25 -94 21 -46
37 -87 37 -93 0 -6 -48 -10 -122 -10 -68 0 -154 -2 -193 -5 l-70 -5 -10 128
c-7 85 -7 127 0 127 15 0 125 176 125 199 0 13 -82 118 -113 145 -21 18 -22
24 -21 248 1 180 5 233 15 243 8 7 40 15 72 18 l58 6 -5 -32 c-3 -18 -8 -72
-11 -122 -8 -127 -16 -147 -70 -173 -43 -21 -61 -52 -30 -52 27 0 95 50 107
78 6 15 16 85 22 155 l11 128 45 -24 c25 -13 75 -41 112 -61 37 -20 76 -36 86
-36 22 0 46 26 95 100 l36 55 64 3 64 2 17 -44z m407 29 c10 -7 13 -585 3
-585 -15 0 -91 61 -103 84 -13 23 -10 38 24 153 59 200 61 211 43 230 -14 14
-32 14 -145 5 -93 -7 -132 -7 -141 1 -19 15 -72 109 -66 118 5 8 371 2 385 -6z
m-2541 -247 c27 -18 52 -39 55 -47 5 -13 -79 -111 -96 -111 -3 0 -26 18 -49
39 l-43 39 29 56 c15 31 34 56 42 56 7 0 35 -14 62 -32z m2926 -167 c-3 -46
-10 -89 -16 -95 -12 -12 -14 -46 -2 -46 11 0 14 -88 2 -95 -5 -3 -10 -13 -10
-21 0 -8 5 -12 10 -9 14 9 12 -9 -2 -24 -11 -10 -10 -11 3 -6 21 8 57 -31 42
-46 -14 -14 -34 -3 -27 16 4 10 -4 15 -28 17 -50 5 -71 56 -64 157 3 42 7 99
8 128 1 28 6 49 10 47 5 -3 8 -59 6 -125 -1 -81 2 -123 10 -131 9 -9 12 4 13
57 1 39 4 81 7 95 3 14 4 59 4 100 -2 94 3 113 25 85 12 -16 14 -38 9 -104z
m-2931 -54 c51 -49 54 -63 24 -98 -12 -13 -32 -37 -45 -54 l-23 -30 -59 59
-59 59 51 53 c28 30 54 54 58 54 4 0 28 -19 53 -43z m6630 -309 c0 -124 -3
-229 -6 -233 -4 -3 -39 -5 -78 -3 l-71 3 54 73 c30 41 63 94 72 118 20 54 11
94 -42 190 -19 33 -34 66 -34 73 0 8 17 11 53 9 l52 -3 0 -227z m-5122 164
l45 -58 -45 -75 c-65 -109 -66 -108 -59 6 3 55 6 119 6 143 0 23 2 42 4 42 1
0 24 -26 49 -58z m1032 -449 l-6 -43 -96 0 c-81 0 -94 2 -89 15 3 8 10 66 16
128 6 61 14 120 16 130 3 10 40 40 82 67 l77 49 3 -152 c2 -84 0 -171 -3 -194z
m6283 229 c3 -42 3 -42 43 -42 32 0 39 -3 39 -20 0 -16 -7 -20 -31 -20 -44 0
-69 -17 -69 -45 0 -22 -4 -25 -39 -25 -39 0 -40 1 -43 37 -3 34 -6 38 -43 49
l-40 11 47 5 c51 6 98 44 98 80 0 13 6 18 18 16 12 -2 18 -15 20 -46z m-8850
-155 c23 -23 42 -49 42 -56 0 -7 -16 -32 -35 -56 l-35 -43 45 -68 c25 -38 45
-72 45 -76 0 -4 -12 -16 -27 -27 -16 -12 -33 -24 -38 -28 -6 -5 -18 -14 -27
-21 -13 -11 -20 -8 -47 18 -17 17 -38 46 -47 65 -15 33 -15 36 5 64 12 17 33
39 46 50 14 10 25 21 25 24 0 3 -16 24 -35 47 -19 23 -35 49 -35 58 0 21 50
92 64 92 7 0 31 -19 54 -43z m9632 -156 c6 -12 10 -101 10 -220 0 -190 -1
-202 -21 -222 -11 -11 -28 -19 -37 -17 -35 7 -61 401 -30 461 12 24 64 23 78
-2z m-3315 -121 c143 -6 278 -14 300 -18 42 -8 -55 -7 -655 4 -394 8 -419 5
-440 -46 -9 -21 -12 -82 -10 -198 2 -92 2 -207 0 -257 -3 -80 -4 -73 -9 60 -4
83 -7 215 -6 295 0 144 0 144 25 157 31 16 414 17 795 3z m-2930 -10 c-3 -4
-5 -127 -5 -274 l-1 -266 -264 0 c-145 0 -270 -3 -279 -6 -14 -6 -16 21 -16
252 0 143 4 265 9 272 4 8 33 17 62 21 67 10 500 10 494 1z m527 -6 c49 -8 50
-12 46 -303 l-3 -235 -270 0 -270 -1 0 265 c0 146 -4 271 -9 279 -8 12 25 13
230 8 131 -4 256 -10 276 -13z m618 -6 c-15 -6 -87 -8 -183 -6 -107 3 -160 1
-165 -6 -4 -6 -8 -150 -8 -321 -2 -322 -9 -610 -20 -752 l-6 -83 68 -2 c372
-10 1006 -12 1035 -3 20 7 23 45 41 450 19 423 13 674 -16 692 -6 4 -60 8
-121 10 -60 2 -186 7 -280 12 l-170 9 220 -5 c121 -2 256 -5 300 -6 l80 -2 11
-190 c11 -191 2 -821 -14 -930 -11 -79 9 -76 -617 -70 -297 4 -544 10 -549 15
-5 5 -6 70 -2 147 4 76 10 336 14 579 6 351 10 444 21 457 12 15 38 17 200 16
138 0 180 -3 161 -11z m2946 -18 c115 0 297 2 404 6 l196 6 12 -27 c28 -61 15
-1174 -13 -1168 -15 4 -23 176 -23 488 1 476 -2 635 -12 660 -9 25 -10 25
-145 25 -83 0 -135 -4 -135 -10 0 -5 16 -10 37 -10 36 0 36 0 17 -21 -35 -39
-52 -42 -83 -16 -23 19 -26 25 -14 33 9 5 -95 8 -274 8 -348 -2 -336 -2 -328
-14 4 -6 58 -10 131 -10 74 0 124 -4 124 -10 0 -5 -14 -17 -32 -26 -29 -15
-34 -15 -59 0 -36 21 -51 20 -83 -5 -23 -18 -27 -19 -32 -4 -4 8 -15 20 -25
25 -14 8 -24 4 -47 -21 l-30 -32 -27 21 c-33 26 -51 27 -92 7 -29 -14 -52 -45
-35 -45 4 0 13 -13 19 -29 10 -27 8 -32 -18 -57 l-29 -28 25 -26 c29 -30 31
-43 9 -60 -35 -29 -36 -48 -4 -83 26 -31 28 -36 15 -53 -15 -20 -20 -54 -7
-54 6 0 35 42 50 72 2 3 -11 22 -28 41 l-30 35 26 31 c26 32 25 40 -8 77 -18
20 -18 21 7 44 29 27 31 47 10 76 -13 20 -12 22 13 34 31 16 51 14 73 -6 22
-20 33 -18 70 13 l32 27 15 -22 c18 -27 25 -27 61 -1 28 21 30 21 59 3 28 -16
34 -16 69 -3 26 10 39 22 41 37 3 18 10 22 37 22 l34 0 1 -270 0 -270 -240 0
c-132 0 -240 2 -240 5 0 2 17 16 37 29 l36 25 23 -24 c30 -33 47 -31 81 5 l28
30 52 -27 c45 -24 55 -26 72 -16 16 10 26 10 45 1 20 -8 29 -8 41 2 18 15 11
31 -11 23 -8 -3 -24 3 -34 12 -19 17 -21 17 -39 1 -17 -15 -22 -16 -54 -3 -19
8 -38 20 -41 26 -13 20 -44 11 -66 -19 -26 -37 -38 -38 -65 -4 l-21 27 -43
-27 c-23 -15 -44 -33 -48 -41 -3 -9 -18 -15 -38 -15 l-33 0 -7 90 c-4 51 -12
90 -18 90 -7 0 -7 28 -2 88 5 48 10 125 11 172 1 47 5 85 10 86 5 0 30 4 57 8
39 7 45 11 36 22 -10 12 -2 14 47 15 33 0 77 4 99 9 22 5 63 7 91 4 28 -2 145
-4 260 -4z m-1686 -9 c0 -5 -11 -33 -24 -62 -13 -30 -29 -84 -36 -121 l-12
-67 -77 -26 c-42 -14 -82 -25 -89 -25 -10 0 -12 33 -10 147 l3 147 25 7 c37
10 220 10 220 0z m235 -56 c39 -36 75 -65 81 -65 5 0 23 14 39 30 16 17 51 44
76 61 44 28 51 29 112 23 l64 -6 12 -50 c6 -27 11 -69 11 -93 0 -83 7 -90 107
-104 140 -19 133 -16 133 -60 0 -27 -5 -41 -16 -45 -14 -5 -15 -4 -4 9 10 12
10 18 -1 31 -11 13 -25 15 -71 10 -102 -12 -153 -33 -230 -95 -119 -96 -133
-109 -128 -113 3 -2 60 -1 128 2 114 7 125 9 175 39 l52 32 -43 -43 -42 -43
-90 3 c-52 2 -90 0 -90 -6 0 -11 57 -22 118 -22 39 0 48 -6 121 -75 72 -69
101 -88 101 -67 0 4 -31 38 -70 74 -38 37 -70 70 -70 75 1 4 37 46 80 93 77
81 80 83 80 54 0 -23 -12 -42 -50 -79 -27 -27 -50 -53 -50 -58 0 -6 22 -32 49
-58 l50 -49 -5 -72 c-7 -97 -8 -98 -49 -98 -22 0 -34 -4 -30 -10 3 -5 22 -10
41 -10 l35 0 -6 -122 c-3 -68 -8 -138 -11 -156 l-5 -34 -47 6 c-26 4 -158 8
-293 9 l-246 2 40 57 40 57 34 -29 c19 -17 44 -30 56 -29 21 0 21 1 3 12 -11
7 -34 24 -51 40 -18 15 -36 27 -41 27 -4 0 -21 -12 -37 -27 l-29 -28 7 25 c4
14 15 37 26 52 12 17 15 29 8 33 -6 4 -11 5 -13 4 -1 -2 -31 -34 -66 -71 -35
-38 -57 -68 -48 -68 8 0 24 9 36 21 19 17 24 18 36 6 13 -12 11 -19 -14 -49
-24 -30 -37 -36 -82 -41 -41 -5 -408 10 -415 16 -1 1 -5 66 -9 143 l-7 142 39
-7 c22 -4 52 -16 67 -26 33 -21 47 -13 22 14 -9 11 -42 25 -72 31 l-55 12 6
46 c3 25 10 48 14 51 16 12 112 132 112 142 0 5 -25 28 -55 52 -45 34 -55 47
-55 72 0 29 1 29 66 -38 36 -37 77 -72 90 -77 l25 -10 -52 -59 c-68 -78 -96
-121 -77 -121 8 0 25 15 38 33 13 17 44 56 69 84 37 43 52 53 78 53 44 0 51
17 11 25 -54 12 -126 56 -173 106 -25 27 -45 52 -45 56 0 17 137 66 199 71
l64 5 32 -38 c20 -24 36 -36 44 -31 10 6 9 12 -2 24 -47 54 -76 171 -56 230
l12 36 17 -85 c22 -108 34 -131 109 -202 34 -33 61 -63 61 -68 0 -5 6 -9 13
-9 15 0 13 91 -4 177 -10 51 -61 132 -128 206 -32 35 -15 35 35 -2 65 -46 92
-85 118 -163 10 -33 32 -18 55 38 30 70 61 107 119 142 33 19 42 28 29 30 -38
7 -117 -60 -160 -136 -23 -42 -25 -42 -31 -19 -10 40 -92 124 -146 148 -41 18
-48 25 -38 37 10 11 8 13 -12 10 -17 -2 -25 -10 -26 -23 -3 -61 -4 -65 -24
-65 -14 0 -22 -11 -31 -42 -13 -46 -14 -126 -3 -160 5 -18 3 -20 -17 -15 -13
4 -49 7 -79 7 -39 0 -51 3 -40 10 8 5 27 10 42 10 46 0 58 10 58 46 0 48 29
182 46 216 13 26 19 28 72 28 56 0 58 -1 127 -65z m3445 40 c22 -20 22 -23 16
-175 -5 -119 -3 -184 10 -280 11 -89 14 -159 10 -245 -9 -189 -27 -417 -34
-449 l-7 -28 -445 2 c-451 3 -657 5 -697 8 -23 2 -23 3 -23 185 0 100 -5 274
-11 387 -17 308 -17 576 -1 592 18 18 213 25 728 24 417 -1 433 -2 454 -21z
m-6886 -4 c21 -5 42 -13 46 -18 17 -17 28 -659 16 -908 -6 -132 -14 -245 -18
-251 -12 -18 -131 -24 -634 -30 -341 -5 -481 -3 -506 5 l-35 11 5 55 c3 35 0
60 -8 70 -14 17 -28 626 -20 889 5 159 6 169 25 173 11 3 170 6 353 7 183 2
336 7 340 11 9 10 387 -2 436 -14z m2551 1 l120 -7 18 -100 c18 -103 18 -181
-3 -400 -5 -55 -11 -187 -14 -293 -4 -107 -9 -217 -12 -246 l-6 -53 -173 -6
c-109 -5 -203 -3 -252 4 -52 7 -158 9 -315 4 -130 -4 -255 -4 -278 0 l-43 7 7
82 c3 44 8 214 12 376 3 162 7 301 10 308 2 9 20 -6 44 -37 46 -58 65 -65 157
-59 59 4 69 8 94 36 27 31 59 115 59 157 0 29 -63 111 -99 129 -40 21 -129 23
-167 3 -36 -19 -62 -54 -70 -97 -13 -61 -24 -15 -24 96 l0 114 408 -5 c224 -4
461 -9 527 -13z m1474 11 l63 -6 -4 -118 c-2 -64 -6 -120 -9 -123 -3 -3 -50 2
-104 12 l-99 17 -12 85 c-6 47 -15 97 -19 113 l-7 27 64 0 c36 0 93 -3 127 -7z
m4318 -571 c2 -514 1 -572 -14 -584 -12 -10 -61 -13 -217 -11 -111 1 -373 3
-583 5 -238 2 -386 7 -391 13 -6 6 -7 60 -2 140 9 134 9 152 -11 542 -13 248
-8 425 11 448 16 19 124 22 730 19 l475 -2 2 -570z m-2899 511 c2 -33 -2 -46
-22 -67 -33 -33 -34 -71 -1 -92 14 -9 25 -21 25 -27 0 -6 -3 -7 -7 -4 -8 8
-43 -22 -43 -36 0 -6 9 -20 20 -32 l20 -22 -25 -37 c-32 -48 -32 -59 6 -89 25
-19 29 -28 24 -50 -8 -31 -40 -40 -127 -35 l-57 3 28 34 29 35 32 -27 c34 -29
50 -34 49 -14 0 12 -46 53 -72 62 -9 4 -25 -7 -42 -27 l-28 -33 -27 33 c-14
17 -30 32 -35 32 -5 0 -19 -12 -31 -27 l-22 -28 -32 24 c-32 23 -33 23 -71 6
-31 -15 -41 -15 -54 -5 -19 16 -19 44 0 60 21 17 19 40 -7 67 -21 23 -21 23
-2 58 15 29 17 39 6 55 -10 17 -10 24 3 43 14 22 14 25 -5 42 -24 22 -25 33
-2 63 16 21 20 22 31 8 21 -25 66 -20 86 10 l17 26 27 -26 c35 -33 51 -33 86
4 35 36 39 37 77 5 38 -32 61 -32 82 1 23 35 15 53 -11 25 -24 -26 -51 -22
-71 9 -12 20 -11 21 65 18 l78 -3 3 -42z m-367 6 l-33 -31 -22 21 c-29 27 -32
26 -61 -6 -35 -40 -39 -59 -19 -92 15 -25 15 -32 4 -46 -11 -13 -11 -20 0 -40
11 -20 10 -28 -4 -49 -21 -33 -20 -49 4 -71 24 -22 25 -38 5 -55 -22 -18 -18
-46 8 -67 13 -10 22 -24 19 -31 -5 -17 2 -15 40 8 42 25 60 25 83 0 24 -26 41
-25 66 4 l21 25 25 -30 c14 -16 24 -32 22 -34 -3 -2 -82 -7 -177 -11 l-172 -7
0 266 0 266 68 4 c37 2 87 4 112 5 l45 1 -34 -30z m-6640 5 l226 -7 10 -32 c7
-21 7 -84 1 -181 -5 -82 -6 -162 -3 -179 8 -37 18 -712 11 -740 -5 -20 -13
-20 -343 -19 -186 1 -421 -2 -523 -5 -102 -4 -189 -3 -194 1 -6 4 -8 9 -5 10
2 1 230 4 506 7 393 5 505 9 515 19 19 19 19 1075 0 1094 -18 18 -725 23 -928
7 l-152 -12 -6 -131 c-4 -72 -11 -190 -17 -261 -9 -125 1 -508 17 -658 6 -50
5 -57 -9 -51 -9 3 -20 22 -24 42 -4 21 -8 258 -8 527 0 476 1 491 21 525 19
34 22 35 95 40 130 9 576 11 810 4z m191 -57 c12 -19 10 -1045 -3 -1052 -6 -4
-246 -8 -533 -9 l-521 -1 -8 90 c-12 123 -12 592 -1 800 l9 170 95 7 c52 4
104 9 115 11 45 9 840 -6 847 -16z m3245 -30 c29 -16 73 -76 73 -100 0 -43
-24 -110 -50 -137 -26 -27 -34 -30 -95 -30 -78 0 -96 8 -124 54 -36 57 -21
169 27 207 29 22 133 26 169 6z m-4449 -77 c28 -34 49 -66 46 -73 -2 -7 -20
-22 -38 -35 l-34 -24 19 -32 c11 -18 28 -41 39 -51 29 -26 25 -49 -14 -83 -55
-48 -73 -49 -106 -10 -57 67 -58 74 -16 117 l38 39 -31 46 c-17 25 -36 48 -41
51 -20 12 -9 45 28 79 20 20 42 36 48 36 6 0 34 -27 62 -60z m6688 -367 c-4
-197 -12 -414 -19 -483 l-12 -125 -90 1 c-349 2 -566 3 -600 2 -89 -4 -481 14
-489 22 -11 11 0 502 13 555 9 35 9 31 6 -30 -6 -95 -9 -257 -7 -396 l2 -115
218 -12 c139 -7 252 -8 315 -3 97 9 387 7 543 -4 l82 -6 7 148 c4 81 9 164 11
183 2 19 6 167 10 328 4 160 9 292 12 292 3 0 2 -161 -2 -357z m-3435 47 l109
0 0 -30 0 -30 -20 20 c-28 28 -55 25 -78 -7 l-21 -28 -28 26 c-39 37 -62 43
-84 23 -23 -21 -25 -44 -4 -44 8 0 15 5 15 10 0 20 33 9 60 -20 15 -16 32 -30
37 -30 5 0 22 13 38 30 21 22 32 27 41 19 11 -9 8 -19 -13 -50 l-26 -39 19
-41 c18 -41 18 -42 -2 -58 -31 -25 -34 -46 -12 -90 19 -39 19 -43 4 -60 -21
-23 -20 -52 1 -90 23 -39 7 -54 -21 -18 -28 34 -41 34 -91 -4 l-40 -30 -18 26
c-22 30 -50 32 -84 5 -34 -27 -47 -25 -83 10 -17 17 -35 30 -40 30 -15 0 -70
-51 -70 -66 0 -19 7 -18 42 7 l30 21 32 -31 c39 -38 57 -39 102 -5 34 26 35
26 49 8 8 -10 15 -22 15 -26 0 -19 58 -6 80 17 28 30 41 31 58 5 15 -25 47
-26 72 -2 19 18 19 18 0 55 -25 46 -25 59 0 75 25 15 26 44 1 66 -30 27 -32
53 -5 71 28 18 31 52 8 97 -15 28 -14 31 4 52 11 11 22 28 25 36 3 8 6 -98 6
-237 l1 -252 -47 -7 c-26 -4 -117 -3 -202 1 -86 5 -187 9 -226 10 -38 1 -76 2
-84 3 -12 2 -13 37 -8 225 8 265 16 349 31 344 6 -3 9 -11 7 -18 -15 -51 -12
-70 13 -100 18 -21 25 -38 20 -48 -14 -31 -16 -81 -5 -95 9 -10 7 -21 -6 -44
-15 -27 -16 -35 -4 -67 11 -32 10 -39 -8 -71 -21 -35 -28 -74 -13 -74 11 0 62
98 62 119 0 11 -4 23 -10 26 -15 9 -12 41 5 55 17 14 20 56 5 65 -14 9 -12 47
5 68 16 22 11 39 -21 84 -14 18 -21 38 -18 47 8 21 10 20 48 -9 40 -30 67 -32
91 -5 22 24 38 25 55 5 7 -8 16 -12 21 -9 13 7 -7 41 -32 55 -18 9 -25 7 -48
-15 -33 -31 -34 -32 -70 -5 -16 12 -34 18 -40 15 -6 -4 -11 0 -11 8 0 12 18
16 93 19 50 2 112 2 136 0 24 -1 93 -3 152 -3z m170 -21 c-11 -41 -12 -59 -3
-59 6 0 16 9 22 21 11 20 12 20 45 -5 40 -31 75 -33 100 -6 24 27 43 25 67 -5
19 -24 52 -33 62 -17 3 5 -14 25 -38 45 -48 39 -73 40 -113 4 -21 -19 -24 -19
-48 -3 -14 9 -25 20 -25 25 0 12 131 21 303 21 l150 0 -8 -187 c-4 -104 -9
-235 -11 -292 -1 -57 -4 -105 -6 -107 -2 -2 -120 0 -261 3 l-257 6 0 69 c0 39
4 67 9 64 12 -8 71 72 71 95 0 26 -51 82 -63 70 -7 -7 -5 -18 7 -35 20 -32 20
-40 -1 -73 l-18 -27 -7 40 c-9 50 -10 267 -2 328 4 28 11 45 18 43 6 -3 9 -11
7 -18z m-3441 -72 c22 -30 40 -62 40 -73 0 -11 -16 -29 -35 -42 -19 -12 -35
-27 -35 -32 0 -22 -26 -8 -72 37 -26 26 -48 52 -48 59 0 11 93 104 104 104 3
0 23 -24 46 -53z m8030 -44 l-1 -98 -23 29 c-34 41 -44 14 -12 -29 l27 -35
-26 -22 c-30 -26 -32 -48 -6 -79 19 -23 19 -24 -5 -52 -13 -16 -24 -35 -24
-44 0 -16 47 -67 69 -74 9 -3 14 -21 15 -49 l1 -45 -235 -3 c-129 -2 -253 0
-276 3 l-41 6 -10 137 c-8 111 -7 421 1 429 5 5 282 20 409 21 l137 2 0 -97z
m-574 -212 l1 -284 -236 8 c-130 4 -252 7 -272 7 -36 0 -36 0 -43 52 -3 28 -6
102 -6 164 l0 112 26 -17 c23 -15 26 -22 21 -60 -5 -45 5 -56 23 -24 22 43 8
84 -38 110 -14 8 -15 15 -6 50 10 36 9 45 -7 65 -12 15 -19 40 -19 65 l0 40
278 -2 277 -2 1 -284z m-7428 10 c23 -27 42 -55 42 -61 0 -6 -16 -33 -36 -59
-41 -54 -49 -55 -100 -8 -18 15 -39 34 -49 41 -16 12 -15 16 20 64 33 47 59
71 76 72 3 0 25 -22 47 -49z m1 -250 c23 -27 41 -53 41 -57 0 -13 -81 -84 -95
-84 -17 0 -105 79 -105 95 0 15 89 94 107 95 6 0 30 -22 52 -49z m6861 -14 c0
-47 -16 -45 370 -48 124 -1 230 -4 235 -8 6 -3 130 -5 277 -6 172 0 268 -4
268 -10 0 -6 -86 -9 -243 -8 -663 6 -786 9 -793 16 -4 4 -31 7 -60 7 -50 0
-54 2 -59 28 -13 57 -13 62 -4 56 5 -3 9 -15 9 -27z m-3867 -203 l46 -56 -21
-28 c-27 -37 -105 -93 -118 -85 -16 10 -100 123 -100 134 0 6 13 17 28 25 16
8 35 22 42 31 14 17 45 33 66 34 6 1 32 -24 57 -55z m-3002 9 c27 -20 49 -43
49 -51 0 -14 -82 -102 -95 -102 -17 0 -95 73 -95 89 0 29 53 101 74 101 10 0
41 -17 67 -37z m5169 23 c0 -7 20 -32 45 -55 l45 -41 49 36 50 35 30 -22 c17
-12 32 -28 35 -36 3 -7 15 -13 26 -13 17 0 20 6 20 40 0 39 1 40 33 39 17 -1
213 -1 434 0 411 2 557 -2 674 -20 l66 -10 7 -46 c3 -25 6 -121 6 -212 0 -92
5 -238 11 -326 16 -229 17 -495 2 -521 -11 -18 -27 -22 -150 -33 -76 -6 -208
-18 -293 -26 -85 -8 -166 -14 -180 -14 -45 2 60 16 337 45 l271 28 7 63 c6 55
3 155 -10 433 -2 41 -7 190 -11 330 -3 140 -9 258 -13 262 -22 25 -1089 35
-1150 11 l-23 -9 -7 -285 c-8 -381 -4 -791 8 -836 8 -27 7 -33 -1 -25 -13 13
-27 88 -27 150 -1 55 -22 64 -61 27 -33 -32 -55 -28 -94 15 -38 43 -35 81 11
124 l38 35 -33 34 c-17 18 -32 41 -32 50 0 21 77 107 96 107 7 0 18 -9 24 -20
20 -37 40 -24 40 24 0 54 -14 65 -44 37 -31 -29 -42 -27 -76 21 -42 57 -40 96
5 127 19 13 35 29 35 36 0 7 -18 29 -40 49 -44 40 -44 46 4 86 51 44 56 45 82
14 20 -25 25 -27 34 -14 12 17 9 119 -3 127 -5 3 -25 -11 -46 -31 -20 -20 -45
-36 -55 -36 -11 0 -38 16 -62 35 -50 42 -63 43 -94 10 -32 -34 -51 -32 -105
15 -25 22 -51 40 -57 40 -5 0 -30 -18 -55 -40 -25 -22 -49 -40 -52 -40 -4 0
-22 16 -41 35 -19 19 -39 35 -45 35 -6 0 -30 -14 -53 -31 l-41 -30 -45 30
c-24 17 -51 38 -59 46 -13 13 -20 9 -61 -27 l-47 -41 -23 22 c-12 11 -28 21
-35 21 -6 0 -40 -18 -74 -40 l-62 -39 -42 46 c-24 26 -43 52 -43 58 0 12 60
64 98 84 23 12 62 1 62 -18 0 -24 35 -17 76 14 25 19 53 35 63 35 9 0 34 -18
56 -40 l38 -39 50 41 c35 30 53 39 63 32 7 -5 31 -22 53 -38 l40 -28 43 31
c51 38 77 39 108 6 13 -14 29 -25 35 -25 6 0 36 22 66 50 57 52 69 58 69 36z
m-1674 -87 c19 -26 34 -49 34 -51 0 -8 -129 -108 -138 -108 -6 0 -25 20 -43
45 -19 24 -39 46 -46 49 -7 3 -29 -19 -50 -49 -21 -30 -45 -55 -53 -54 -8 0
-44 27 -80 59 l-64 60 29 31 c40 42 111 90 120 81 4 -4 13 -21 20 -39 7 -17
22 -36 33 -42 18 -9 26 -5 59 30 21 23 51 50 68 60 29 18 30 18 53 -4 13 -12
39 -43 58 -68z m280 43 l50 -47 34 39 c19 21 45 43 57 49 21 9 27 5 59 -31 20
-23 40 -42 45 -42 6 0 30 14 54 30 24 17 50 30 57 30 17 0 88 -83 88 -103 0
-15 -103 -117 -118 -117 -5 0 -20 14 -33 32 -13 17 -32 41 -42 52 l-18 21 -22
-29 c-60 -78 -47 -77 -116 -11 -45 43 -66 57 -75 50 -8 -6 -38 -29 -68 -53
-62 -47 -79 -47 -102 2 -8 18 -24 40 -36 51 -30 27 -25 49 18 77 90 62 102 62
168 0z m-1546 -6 c19 -2 94 -9 165 -15 72 -7 150 -11 175 -9 l45 2 6 -254 c3
-140 13 -345 22 -455 8 -110 18 -275 21 -366 l6 -166 -54 -7 c-85 -10 -835 -7
-886 4 -25 5 -107 9 -182 10 -121 0 -137 2 -142 18 -8 25 -25 393 -32 700 -6
241 3 447 22 495 5 15 87 37 174 48 57 6 565 3 660 -5z m7222 -19 c4 -6 8
-100 8 -207 0 -107 4 -222 10 -255 13 -84 21 -368 11 -440 l-7 -60 -7 60 c-10
92 -16 241 -23 585 l-6 315 -572 -3 c-407 -3 -575 -7 -585 -15 -11 -9 -12 -32
-7 -112 4 -55 7 -228 6 -385 -1 -293 18 -572 40 -594 14 -14 437 -23 835 -16
l300 5 11 70 c13 84 26 68 22 -26 l-3 -64 -593 -2 c-464 -2 -594 0 -597 10
-18 51 -40 541 -40 892 l0 250 55 5 c30 3 298 4 595 2 412 -2 541 -5 547 -15z
m1412 12 c8 -8 9 -74 1 -93 -5 -11 -3 -21 3 -25 19 -11 7 -620 -14 -751 -15
-98 -15 -191 2 -233 5 -15 -1 -17 -42 -16 -45 2 -46 2 -14 8 34 6 35 7 30 46
-3 22 -5 83 -5 135 0 90 3 164 25 543 9 158 4 334 -11 358 -5 9 -35 13 -101
12 l-93 -1 74 9 c41 5 76 10 78 12 4 5 62 1 67 -4z m-4406 -8 c40 -1 71 -5 68
-10 -3 -5 12 -36 34 -69 l40 -60 0 -101 c0 -116 -5 -130 -80 -220 -49 -59 -52
-61 -98 -61 -47 0 -49 1 -94 60 -39 51 -47 70 -53 121 -5 46 -11 59 -21 55
-10 -4 -14 4 -14 29 0 35 0 35 -45 35 -41 0 -45 2 -45 25 0 22 4 25 35 25 19
0 35 5 35 10 0 6 -22 10 -50 10 l-50 0 0 -40 c0 -35 -3 -40 -24 -40 -21 0 -25
6 -31 46 l-7 46 -44 -4 c-42 -3 -44 -2 -44 25 0 23 4 27 18 23 22 -7 83 10 93
25 10 17 -1 49 -17 49 -8 0 -13 -9 -11 -22 1 -16 -5 -23 -26 -29 -42 -11 -57
-2 -57 36 0 41 -3 41 240 38 96 -1 208 -2 248 -2z m-518 -186 c0 -117 4 -185
10 -185 6 0 10 17 10 38 0 67 9 82 45 82 30 0 33 -3 38 -37 7 -40 -2 -53 -40
-53 -13 0 -23 -4 -23 -10 0 -11 33 -13 68 -4 19 6 22 13 22 55 0 48 1 49 29
49 28 0 30 -3 33 -42 l3 -43 58 -3 c56 -3 57 -4 57 -32 0 -28 -1 -29 -57 -32
l-58 -3 -3 -37 c-3 -30 -7 -38 -23 -38 -20 0 -23 4 -33 53 -6 26 -9 27 -66 27
-33 0 -60 -4 -60 -10 0 -5 23 -10 50 -10 49 0 50 -1 50 -30 0 -29 -2 -30 -45
-30 -38 0 -45 3 -45 20 0 25 -20 26 -27 1 -5 -20 -46 -31 -117 -31 l-39 0 27
33 c49 61 84 132 97 195 13 63 13 64 -16 117 -16 30 -26 57 -22 61 3 4 9 -1
13 -10 6 -16 34 -23 34 -8 0 5 -9 17 -21 28 -27 24 -42 52 -34 64 3 6 24 10
46 10 l39 0 0 -185z m3916 172 c71 -1 296 -1 664 1 l125 0 -80 -9 c-44 -5
-249 -9 -457 -8 -238 0 -378 -4 -382 -10 -4 -5 -11 -183 -18 -394 -11 -388 -3
-656 21 -680 13 -13 25 -13 571 -5 273 4 413 3 350 -2 -58 -5 -244 -11 -415
-14 -170 -4 -362 -7 -425 -9 l-115 -2 -7 55 c-16 140 -20 480 -7 655 8 99 14
232 14 295 1 152 -2 141 44 134 21 -3 74 -7 117 -7z m-8676 -4 l33 -6 -9 -281
c-4 -155 -9 -398 -9 -541 -2 -330 1 -301 -37 -314 -39 -13 -1042 -20 -1054 -8
-13 13 -14 40 -19 599 l-4 547 27 4 c46 7 1037 7 1072 0z m5464 -85 c19 -282
36 -942 24 -953 -5 -5 -443 -56 -614 -72 -67 -6 -348 7 -324 15 20 7 64 56
108 122 38 57 72 161 72 220 0 32 -30 93 -76 158 l-16 22 56 0 56 0 2 -72 c1
-40 1 -157 -1 -260 -3 -125 0 -188 7 -188 14 0 22 25 22 76 l0 44 40 0 c37 0
40 -2 40 -29 0 -16 7 -34 16 -42 13 -11 15 -7 12 37 l-3 49 -52 3 c-44 3 -53
6 -53 22 0 16 9 19 53 22 l52 3 9 43 c8 35 14 42 33 42 18 0 23 -5 23 -27 0
-16 4 -33 8 -40 9 -15 110 -28 145 -19 23 5 24 9 16 43 -16 71 -11 135 16 182
29 50 26 60 -10 41 -19 -10 -39 -11 -82 -4 -58 9 -58 9 -61 47 l-3 37 163 0
163 0 35 -52 c120 -177 121 -221 11 -367 -23 -30 -41 -59 -41 -64 0 -19 42 28
92 103 50 75 50 75 46 146 -3 68 -6 76 -58 153 -30 44 -64 84 -75 88 -11 4
-78 7 -150 7 -307 2 -385 6 -385 19 0 11 63 13 329 13 238 -1 333 2 342 11 15
15 -7 83 -27 83 -18 0 -18 -4 1 -39 14 -28 14 -29 -17 -35 -38 -8 -78 -8 -78
0 0 3 20 32 45 64 25 32 49 70 55 85 5 14 10 76 10 137 0 101 -2 114 -23 142
-13 17 -29 41 -36 54 -11 21 -10 22 32 22 l45 0 6 -92z m1364 77 c27 -9 27 19
5 -525 -10 -228 -17 -462 -18 -520 l0 -105 -138 -3 -138 -3 25 -30 c14 -17 26
-37 26 -45 0 -18 -88 -114 -104 -114 -6 0 -27 13 -46 28 -54 44 -62 44 -111 2
-24 -22 -48 -39 -52 -40 -5 0 -31 19 -58 42 -43 36 -53 40 -67 30 -9 -7 -32
-22 -49 -33 -18 -12 -33 -27 -33 -35 0 -12 43 -14 253 -15 279 -2 336 -3 579
-14 172 -7 207 -16 195 -49 -6 -14 -25 -16 -154 -14 l-148 2 128 3 c119 3 127
5 127 23 0 19 -9 20 -287 22 -159 1 -351 3 -428 4 -77 2 -159 1 -183 -2 -66
-8 -46 -28 34 -35 l69 -5 -91 -2 c-49 -1 -94 2 -100 7 -5 5 -119 11 -253 14
-227 4 -245 6 -263 25 -23 22 -17 42 13 42 26 0 25 5 -21 59 -22 26 -40 52
-40 59 0 16 39 51 83 74 l39 19 35 -40 c19 -23 40 -41 47 -41 18 0 77 46 69
53 -3 4 -19 7 -35 7 -16 0 -30 6 -33 12 -16 52 -24 886 -10 1067 l7 83 41 -7
c23 -5 53 -7 67 -6 309 18 963 22 1018 6z m-2226 -27 c76 -108 76 -261 -1
-384 -27 -44 -31 -46 -31 -23 0 15 15 52 34 83 35 59 50 118 41 164 -10 47
-58 142 -72 142 -17 0 -16 -24 3 -61 21 -42 22 -162 0 -213 -30 -71 -33 -71
-93 -9 l-55 56 5 59 c4 41 14 72 38 110 18 29 32 65 32 81 0 25 4 27 38 27 31
0 42 -6 61 -32z m-162 -52 c-70 -127 -65 -206 16 -297 24 -27 44 -56 44 -64 0
-22 -28 -18 -35 4 -3 11 -30 42 -59 68 -29 27 -59 59 -66 72 -18 35 -5 94 46
199 39 80 49 92 70 92 l25 0 -41 -74z m3029 -22 c63 -143 59 -206 -21 -350
-32 -56 -45 -70 -59 -67 -11 3 -19 8 -19 12 0 3 18 35 40 71 22 36 48 89 56
118 14 48 14 58 0 100 -30 93 -46 122 -65 122 -20 0 -81 -54 -81 -71 0 -6 -13
-22 -30 -36 -23 -19 -30 -33 -30 -59 0 -39 36 -84 68 -84 54 0 79 104 33 141
l-24 20 23 24 c13 14 26 25 30 25 11 0 48 -74 55 -110 8 -43 -10 -100 -56
-175 l-33 -55 -28 27 c-16 15 -43 50 -61 78 -27 42 -32 59 -32 110 0 56 4 65
53 137 28 42 52 82 52 89 0 21 -31 -13 -79 -86 -44 -68 -46 -73 -46 -145 0
-65 4 -81 29 -120 15 -25 49 -66 74 -92 l46 -48 -31 0 c-24 0 -41 11 -77 50
-66 71 -101 149 -101 226 0 58 3 65 48 124 52 67 65 90 49 90 -13 0 -112 -130
-112 -147 0 -7 -4 -13 -9 -13 -10 0 -18 104 -13 152 l3 27 132 4 c73 1 141 4
153 5 18 2 28 -14 63 -94z m225 89 l77 -6 -3 -31 c-3 -29 -6 -31 -43 -31 -36
0 -40 3 -43 28 -2 15 -8 27 -13 27 -12 0 -12 -77 1 -85 6 -3 10 -19 10 -35 0
-16 -4 -32 -10 -35 -13 -8 -13 -51 1 -77 9 -17 17 -19 50 -14 l39 6 0 -51 c0
-46 -2 -50 -22 -47 -13 2 -24 12 -28 26 -6 29 -23 25 -25 -6 -1 -28 13 -41 49
-44 25 -2 26 -4 26 -70 l0 -68 -34 0 c-38 0 -40 2 -50 42 -6 26 -4 28 34 34
48 8 53 24 7 24 -52 0 -71 -20 -64 -64 5 -31 3 -37 -11 -34 -13 2 -18 15 -20
52 -1 27 -7 55 -12 61 -6 7 -4 19 6 33 23 33 43 98 34 111 -9 16 -72 10 -78
-8 -3 -10 3 -11 27 -6 23 5 31 3 31 -8 0 -23 -50 -110 -73 -129 l-22 -18 33 0
c31 0 32 -1 32 -45 l0 -45 -72 4 c-40 2 -76 5 -79 5 -4 1 14 41 38 89 36 69
46 102 50 154 l6 67 46 3 c26 2 44 7 41 13 -7 14 -69 18 -84 6 -10 -9 -15 -6
-20 11 -3 13 -6 25 -6 29 0 3 19 6 42 8 23 1 45 4 50 7 12 7 10 84 -2 84 -5 0
-10 -16 -10 -35 l0 -35 -49 0 c-53 0 -46 -7 -88 98 -6 14 100 17 231 5z m543
-276 c3 -328 10 -496 24 -587 6 -36 7 -95 4 -131 l-7 -67 -55 -7 c-30 -4 -57
-4 -60 -2 -2 3 9 24 26 48 18 24 31 54 31 71 0 38 -21 32 -32 -8 -4 -16 -21
-46 -38 -66 -26 -31 -38 -38 -68 -38 -35 0 -39 3 -77 70 -22 38 -43 70 -47 70
-16 0 -7 -35 23 -86 27 -48 28 -54 12 -54 -43 1 -132 175 -133 259 0 36 34
112 76 166 l26 35 87 0 86 -1 41 -72 c23 -40 44 -81 48 -91 5 -13 10 -16 17
-9 13 13 -10 72 -46 119 -34 45 -32 54 15 54 22 0 40 5 40 11 0 7 -68 10 -217
8 -205 -2 -217 -1 -224 17 -4 10 -8 21 -8 24 -1 3 96 4 214 2 155 -3 215 -1
215 7 0 7 -21 11 -55 11 -30 0 -55 3 -55 6 0 4 15 25 33 48 63 77 106 167 80
166 -5 -1 -19 -24 -33 -52 -14 -29 -47 -76 -74 -105 -44 -49 -51 -53 -84 -49
-40 4 -66 30 -130 128 -20 32 -40 58 -44 58 -19 0 -4 -32 47 -106 54 -79 54
-79 30 -87 -13 -5 -50 -4 -82 0 l-58 8 3 235 c2 129 4 236 5 237 1 0 68 3 149
5 142 4 178 -1 178 -24 0 -18 81 -148 92 -148 14 0 0 35 -38 99 -19 31 -34 59
-34 64 0 4 18 7 39 7 22 0 43 5 46 10 4 6 -14 10 -47 11 -29 0 -73 4 -98 8
-37 7 -28 9 55 10 l100 1 2 -283z m1407 261 c10 -40 6 -287 -9 -493 -8 -110
-15 -275 -15 -367 l0 -167 -235 -1 c-193 0 -235 2 -235 13 0 8 -10 19 -22 25
-13 7 -32 18 -43 26 -18 14 -24 12 -73 -30 l-54 -44 -89 0 -89 0 0 39 c0 43
-18 101 -31 101 -5 0 -9 10 -9 23 0 46 -13 51 -68 23 -28 -14 -63 -26 -77 -26
-14 0 -25 -4 -25 -10 0 -17 59 -11 99 10 40 20 51 18 51 -9 0 -9 7 -29 16 -46
14 -27 22 -90 12 -100 -2 -3 -43 -8 -91 -11 l-86 -7 -11 27 c-11 31 -14 206
-2 206 4 0 25 -7 47 -14 39 -14 60 -12 51 3 -3 4 -28 13 -55 21 l-51 14 0 52
c0 50 2 54 74 137 l75 85 47 -6 c30 -3 45 -1 41 5 -4 6 -27 13 -53 16 -39 4
-54 13 -100 58 -29 29 -57 49 -61 45 -5 -4 18 -32 49 -61 l57 -53 -69 -73
c-76 -80 -91 -77 -34 8 l37 53 -28 42 c-25 37 -28 53 -31 137 l-4 96 38 2 c84
5 141 15 150 26 6 7 15 39 21 72 7 33 17 79 23 103 l11 42 82 0 83 0 36 -40
c20 -22 39 -40 43 -40 4 0 28 18 54 40 47 39 49 40 126 40 l79 0 16 -34 c9
-18 19 -54 23 -80 7 -45 8 -46 42 -46 38 0 43 23 6 28 -15 2 -23 13 -28 40 -4
20 -13 49 -21 64 -8 15 -10 29 -6 32 5 3 71 8 147 11 76 3 141 7 143 10 11 10
20 4 26 -17z m-880 -35 c-4 -15 -14 -61 -23 -102 -16 -74 -17 -75 -51 -82 -19
-4 -57 -9 -85 -10 l-50 -3 4 104 c2 58 5 108 8 113 2 4 49 7 104 7 l99 0 -6
-27z m-6229 -129 c203 -5 247 -9 284 -25 54 -23 101 -24 194 -3 63 15 125 16
507 11 267 -3 446 -10 463 -16 15 -6 33 -22 39 -37 19 -41 -1 -46 -142 -39
-262 14 -1094 22 -1335 13 -241 -9 -650 -5 -727 8 -20 4 -39 13 -42 21 -10 24
5 64 28 74 20 9 195 7 731 -7z m2578 -240 c18 -20 35 -42 39 -48 4 -8 -47 -12
-183 -14 -137 -2 -189 0 -189 8 0 8 28 11 88 10 48 -1 93 -2 100 -1 7 1 12 16
12 41 l0 40 50 0 c46 0 54 -4 83 -36z m-3382 -139 c7 -104 2 -584 -6 -632 -3
-18 -9 -33 -14 -33 -24 0 -52 397 -42 595 7 146 12 168 39 163 14 -3 18 -20
23 -93z m3019 65 l0 -30 -211 0 c-137 0 -208 -3 -204 -10 3 -5 21 -10 38 -10
18 0 42 -3 54 -6 19 -5 17 -10 -28 -57 -47 -50 -50 -51 -64 -33 -16 21 -19 66
-9 128 l7 38 206 3 c113 1 207 3 209 5 1 1 2 -11 2 -28z m3018 -72 c3 -27 2
-28 -45 -29 -26 -1 -175 -4 -331 -8 l-282 -6 0 31 c0 17 3 33 6 37 4 3 151 5
328 4 l321 -2 3 -27z m-2806 -25 l3 -48 65 -9 c36 -5 66 -10 68 -11 1 -1 0 -9
-4 -18 -4 -12 -22 -17 -72 -19 -65 -3 -67 -4 -70 -30 -2 -20 -9 -28 -23 -28
-16 0 -19 7 -19 40 0 44 2 43 -77 40 -48 -1 -53 1 -53 20 0 18 4 20 34 15 56
-11 73 0 81 50 6 41 9 45 35 45 27 0 29 -3 32 -47z m-309 -34 c37 -56 47 -80
47 -113 0 -64 -24 -137 -65 -202 -53 -83 -84 -114 -116 -114 -22 0 -31 9 -54
53 -38 72 -117 188 -132 194 -14 6 -18 63 -5 63 5 0 43 41 85 91 42 50 77 85
77 76 0 -8 -7 -20 -16 -28 -9 -7 -36 -41 -61 -76 -35 -49 -44 -69 -39 -88 11
-42 110 -215 123 -215 24 0 13 41 -32 119 -50 86 -55 121 -26 166 27 41 98
121 103 115 2 -3 20 -25 39 -50 44 -55 69 -102 69 -130 0 -11 -19 -57 -42
-103 -24 -45 -44 -85 -46 -89 -2 -5 3 -8 11 -8 16 0 107 170 107 201 0 27 -31
85 -73 139 -27 33 -33 48 -25 57 6 7 13 13 17 13 3 0 27 -32 54 -71z m3233
-11 c-42 -59 -66 -119 -66 -165 0 -74 34 -168 86 -240 l16 -23 -61 0 -61 0 0
143 c0 78 -3 179 -7 225 l-6 82 58 0 57 0 -16 -22z m-576 7 c0 -3 -18 -22 -41
-42 -47 -43 -75 -91 -61 -105 6 -6 16 4 28 28 11 21 36 51 57 68 l37 30 36
-35 c70 -65 97 -162 66 -231 -19 -43 -77 -118 -91 -118 -8 0 -68 86 -89 125
-9 18 -11 18 -17 3 -7 -17 8 -49 50 -107 34 -46 33 -65 -2 -56 -16 4 -28 7
-29 8 0 1 -18 34 -39 72 -86 158 -114 230 -85 222 5 -1 17 12 27 29 31 55 80
102 110 107 15 2 31 5 36 6 4 0 7 -1 7 -4z m138 -41 c46 -63 55 -93 51 -182
-4 -74 -6 -81 -53 -150 -49 -71 -59 -79 -83 -64 -9 6 -3 18 23 43 45 43 84
118 84 162 0 61 -29 137 -71 182 -21 23 -39 45 -39 49 0 3 12 6 28 6 20 -1 35
-12 60 -46z m204 -1 l3 -48 64 4 c50 2 62 0 59 -10 -3 -8 -23 -15 -49 -17 -55
-4 -69 -16 -69 -58 0 -30 -3 -34 -25 -34 -23 0 -25 4 -25 45 0 25 -4 45 -9 45
-5 0 -11 27 -13 60 l-3 60 32 0 c31 0 32 -1 35 -47z m14 -234 c-5 -32 -3 -40
15 -50 12 -6 39 -9 60 -7 l39 4 0 -52 0 -51 -61 -6 c-34 -3 -76 -3 -94 0 -28
4 -33 10 -41 47 -8 39 -11 41 -44 41 -26 0 -34 4 -31 15 2 8 6 34 8 58 5 40 7
42 39 42 31 0 34 -3 34 -30 0 -16 5 -30 10 -30 6 0 10 13 10 29 0 23 5 30 23
33 34 6 40 -1 33 -43z m-2201 -439 c18 -20 18 -22 1 -38 -15 -15 -50 -17 -337
-20 -316 -3 -349 0 -349 29 0 28 53 34 340 39 162 3 302 7 311 8 9 1 24 -7 34
-18z m2680 -27 c37 -11 39 -34 5 -49 -35 -16 -934 -33 -949 -18 -3 3 8 18 25
34 28 27 35 29 144 36 63 3 117 9 120 11 9 9 624 -4 655 -14z"/>
<path d="M1980 4751 c0 -5 15 -19 33 -30 17 -11 38 -25 45 -29 17 -11 -2 -54
-50 -115 l-30 -37 218 2 c190 3 219 5 222 19 2 11 -10 19 -38 28 -23 7 -50 21
-62 33 l-20 20 -27 -32 c-32 -39 -58 -41 -125 -11 -48 21 -48 21 -32 43 54 75
67 98 61 107 -8 14 -195 15 -195 2z"/>
<path d="M556 4492 c-5 -8 -23 -441 -31 -742 -3 -113 -8 -237 -11 -276 -9
-118 -5 -120 360 -110 145 3 372 2 510 -4 171 -7 253 -7 260 0 12 12 12 91 3
665 -5 329 -10 422 -20 432 -10 11 -103 16 -413 23 -219 5 -456 12 -526 14
-70 3 -130 2 -132 -2z m70 -22 c14 0 22 -4 19 -10 -13 -21 96 -170 125 -170
15 0 110 114 110 133 0 31 -26 18 -66 -33 -21 -27 -42 -49 -46 -50 -8 0 -71
77 -87 108 -12 22 -11 22 67 22 43 0 147 -3 230 -7 l151 -6 -36 -44 c-19 -23
-39 -43 -44 -43 -5 0 -18 18 -29 40 -19 36 -50 55 -50 30 0 -24 65 -110 83
-110 5 0 30 22 55 49 40 42 53 50 87 52 69 3 73 1 106 -62 18 -34 43 -68 56
-76 23 -15 26 -13 106 63 45 44 84 81 87 84 3 3 19 5 37 5 34 0 47 -23 32 -61
-4 -10 -8 -13 -8 -6 -1 8 -7 12 -15 10 -20 -4 -146 -167 -146 -188 0 -10 17
-30 38 -45 20 -16 51 -41 69 -58 22 -21 38 -28 53 -24 16 4 20 2 16 -10 -3 -8
-6 -26 -6 -39 0 -15 -6 -24 -15 -24 -18 0 -95 -116 -95 -143 0 -24 17 -56 47
-88 21 -22 22 -28 10 -35 -32 -20 -97 -106 -97 -131 0 -33 90 -170 100 -152
10 15 0 43 -39 105 -16 27 -26 54 -23 61 4 7 26 32 48 55 44 46 56 96 28 119
-9 7 -22 25 -30 41 -14 27 -13 31 21 83 19 30 39 55 43 55 11 0 26 -548 16
-573 -6 -17 -21 -18 -258 -10 -138 4 -284 8 -324 7 -39 0 -71 0 -70 0 2 1 24
18 49 38 l46 37 41 -34 c42 -37 62 -44 62 -22 0 14 -25 38 -78 75 l-32 23 -60
-53 c-33 -29 -60 -56 -60 -60 0 -5 -16 -8 -35 -8 -25 0 -33 4 -29 13 4 12 -23
46 -126 160 -17 19 -48 -6 -98 -78 -29 -41 -52 -79 -52 -85 0 -13 -36 -13 -60
0 -18 10 -19 21 -13 221 6 196 8 213 27 234 49 54 66 85 66 118 0 34 -34 97
-57 105 -20 6 -15 -27 7 -55 21 -27 27 -68 10 -78 -6 -3 -19 -23 -30 -43 l-21
-37 6 110 c3 61 8 166 10 234 2 68 6 125 8 128 3 2 26 -16 51 -40 l47 -44 -40
-50 c-22 -28 -45 -54 -51 -58 -13 -8 -13 -45 0 -45 17 0 120 133 120 155 0 13
-24 43 -60 78 -57 53 -60 59 -60 103 0 38 3 45 16 40 9 -3 27 -6 40 -6z m137
-960 c7 -11 34 -42 60 -70 l46 -50 -115 0 -114 0 27 43 c39 62 66 97 74 97 4
0 14 -9 22 -20z"/>
<path d="M975 4246 c-27 -35 -57 -46 -70 -26 -8 13 -35 13 -35 1 0 -20 33 -41
65 -41 26 0 39 7 55 30 26 37 36 38 45 3 15 -60 50 -70 77 -23 21 36 31 38 48
6 16 -30 66 -54 82 -38 12 12 2 32 -16 32 -7 0 -26 16 -43 35 -38 42 -55 44
-84 8 -12 -16 -23 -23 -26 -18 -27 72 -59 82 -98 31z"/>
<path d="M740 4224 c0 -3 20 -25 45 -50 25 -24 45 -49 45 -57 0 -7 -13 -26
-30 -42 -33 -32 -38 -56 -15 -75 22 -18 19 -27 -25 -69 -37 -35 -39 -40 -30
-71 5 -18 17 -41 26 -51 15 -17 15 -20 0 -43 -20 -31 -20 -46 -3 -46 21 0 47
34 47 62 0 14 -9 37 -20 51 -28 35 -25 52 15 83 27 20 35 34 35 58 0 18 -5 37
-11 43 -9 9 -4 21 20 48 17 20 31 40 31 46 0 37 -74 119 -107 119 -13 0 -23
-3 -23 -6z"/>
<path d="M975 3689 c-48 -25 -69 -49 -56 -62 6 -6 28 2 59 22 27 17 54 31 60
31 7 0 18 -15 26 -34 25 -60 72 -71 127 -31 19 13 44 29 57 34 27 13 29 41 3
41 -10 0 -35 -13 -56 -30 -55 -44 -79 -38 -110 24 -14 29 -61 31 -110 5z"/>
<path d="M7517 4392 c-50 -52 -27 -122 41 -122 62 0 83 76 34 123 -35 34 -42
34 -75 -1z"/>
<path d="M8145 4385 c-48 -47 -23 -125 40 -125 65 0 91 88 39 129 -34 27 -50
26 -79 -4z"/>
<path d="M8153 3850 c-42 -25 -83 -106 -83 -162 1 -153 195 -224 302 -111 33
35 45 65 46 123 1 53 -10 76 -58 117 -50 43 -77 56 -86 41 -4 -7 0 -16 11 -22
10 -6 38 -28 62 -50 40 -36 43 -42 43 -88 0 -66 -21 -102 -73 -127 -163 -79
-290 104 -168 243 9 10 26 22 39 27 13 5 20 13 17 19 -9 14 -15 13 -52 -10z"/>
<path d="M8191 3754 c-58 -49 -35 -134 37 -134 63 0 97 96 50 140 -29 27 -50
25 -87 -6z"/>
<path d="M10516 4424 c-3 -9 -6 -53 -6 -99 l0 -83 66 -71 c36 -39 70 -71 76
-71 6 0 7 34 3 93 -8 99 -19 126 -82 203 -39 48 -48 52 -57 28z"/>
<path d="M10812 4392 c-23 -27 -46 -62 -52 -78 -11 -28 -15 -212 -5 -222 12
-13 101 97 124 154 7 18 11 63 9 110 -4 99 -18 106 -76 36z"/>
<path d="M11113 4312 c-29 -2 -53 -7 -53 -13 0 -10 9 -12 62 -9 21 1 48 -6 60
-14 25 -18 25 -18 -58 -16 -44 1 -64 -3 -73 -14 -18 -21 -99 -22 -107 -1 -8
20 -24 9 -24 -18 0 -11 -14 -36 -32 -54 -44 -45 -26 -55 20 -11 30 29 46 37
89 40 31 3 58 12 69 22 13 13 27 17 52 12 43 -7 46 -10 33 -35 -19 -35 6 -33
28 3 12 18 35 39 51 46 35 14 35 33 0 38 -13 2 -33 9 -44 16 -12 6 -45 10 -73
8z"/>
<path d="M10230 4181 c-13 -9 -13 -15 4 -46 38 -70 102 -99 244 -111 70 -6 82
-5 82 8 0 19 -93 100 -146 126 -45 23 -162 37 -184 23z"/>
<path d="M10938 4142 c-67 -39 -131 -100 -124 -119 5 -12 23 -14 105 -11 l99
3 71 49 c105 73 93 106 -36 106 -56 0 -76 -5 -115 -28z"/>
<path d="M10655 4048 c-32 -17 -45 -39 -45 -79 0 -29 8 -46 35 -75 31 -33 39
-36 71 -31 44 7 63 22 81 65 35 83 -62 164 -142 120z"/>
<path d="M10341 3905 c-152 -88 -162 -145 -26 -145 48 0 80 5 102 18 42 23
155 130 149 140 -3 5 -45 9 -93 10 -78 2 -93 -1 -132 -23z"/>
<path d="M10860 3896 c0 -7 28 -33 63 -57 34 -23 64 -46 67 -50 3 -5 27 -14
53 -21 62 -16 130 4 135 40 4 29 -23 72 -46 72 -10 0 -23 5 -30 12 -18 18
-242 22 -242 4z"/>
<path d="M10764 3770 c7 -107 19 -147 55 -197 32 -44 95 -88 111 -78 5 3 10
39 10 78 0 85 -7 98 -110 207 l-72 75 6 -85z"/>
<path d="M10562 3744 c-47 -72 -61 -121 -62 -207 0 -76 17 -83 72 -31 57 55
78 105 77 184 -2 135 -25 149 -87 54z"/>
<path d="M2459 4393 c-34 -39 -59 -121 -59 -189 0 -66 16 -134 32 -134 13 0
67 116 74 159 8 50 -3 143 -19 166 -12 15 -14 15 -28 -2z"/>
<path d="M2124 4358 c-17 -27 -7 -98 22 -155 26 -52 36 -62 98 -95 38 -21 73
-38 78 -38 19 0 6 62 -28 129 -36 73 -121 171 -148 171 -8 0 -18 -5 -22 -12z"/>
<path d="M2695 4233 c-68 -35 -193 -178 -181 -208 13 -34 125 -5 192 50 49 40
101 132 91 159 -8 21 -62 21 -102 -1z"/>
<path d="M2042 4040 c-52 -43 2 -84 110 -85 86 0 106 16 63 51 -27 22 -112 55
-139 54 -6 -1 -21 -9 -34 -20z"/>
<path d="M2363 4040 c-64 -39 -52 -125 23 -156 63 -26 114 7 114 74 0 89 -64
127 -137 82z"/>
<path d="M2597 3944 c-65 -20 -63 -49 8 -84 44 -22 63 -25 161 -25 113 0 149
10 138 40 -3 8 -44 30 -91 49 -94 40 -139 44 -216 20z"/>
<path d="M2225 3882 c-70 -24 -98 -45 -140 -107 -28 -40 -36 -60 -31 -79 8
-33 51 -42 105 -20 61 24 181 161 181 207 0 22 -46 22 -115 -1z"/>
<path d="M2518 3849 c-10 -30 13 -194 32 -223 23 -37 83 -86 104 -86 23 0 36
33 36 87 0 55 -26 103 -99 186 -42 46 -66 58 -73 36z"/>
<path d="M2353 3818 c-27 -30 -38 -53 -52 -110 -15 -63 -17 -196 -3 -210 19
-19 65 9 95 56 24 38 27 52 26 127 -1 83 -16 150 -35 156 -6 2 -19 -7 -31 -19z"/>
<path d="M3989 3185 c-20 -23 -24 -23 -50 -10 -37 20 -52 -1 -19 -27 30 -24
68 -23 91 5 l19 22 25 -30 24 -29 31 29 c16 15 31 27 34 24 2 -2 9 -14 15 -26
13 -26 43 -30 60 -9 15 18 49 27 57 14 3 -5 -3 -19 -13 -31 -33 -37 -34 -44
-7 -76 24 -29 24 -32 10 -53 -21 -29 -20 -31 9 -66 22 -26 23 -31 10 -42 -20
-17 -19 -40 5 -70 23 -30 38 -20 21 16 -10 22 -9 30 4 44 21 23 19 39 -7 60
-21 16 -21 20 -9 44 15 27 11 42 -21 89 -11 16 -10 21 10 34 31 21 30 70 -1
84 -18 8 -33 7 -61 -5 -37 -15 -38 -15 -61 12 l-23 27 -29 -21 c-28 -21 -29
-21 -52 -3 -31 25 -47 24 -72 -6z"/>
<path d="M3848 3164 c-10 -22 -9 -32 11 -69 18 -34 21 -47 12 -63 -16 -30 -13
-73 6 -94 15 -17 15 -21 -2 -58 -17 -39 -17 -41 0 -60 16 -18 17 -24 5 -60
-15 -46 -10 -55 36 -64 25 -6 38 -2 63 20 31 26 32 26 46 8 14 -19 15 -18 53
3 37 21 38 21 50 2 14 -23 60 -25 68 -4 5 11 16 13 45 9 25 -4 44 -2 54 6 23
19 18 33 -9 26 -14 -3 -36 -1 -50 6 -21 9 -29 8 -44 -5 -23 -21 -36 -21 -52
-2 -16 20 -49 19 -72 -2 -14 -13 -21 -14 -30 -5 -18 18 -34 15 -78 -14 -48
-32 -67 -24 -43 17 14 24 15 33 5 47 -22 31 -25 44 -14 63 17 26 15 64 -3 79
-8 7 -15 23 -15 35 0 12 7 28 15 35 21 18 19 54 -6 76 -17 15 -20 26 -15 56 5
30 3 38 -9 38 -9 0 -21 -12 -27 -26z"/>
<path d="M6636 3051 c-66 -70 -98 -134 -98 -198 0 -87 51 -95 125 -20 58 57
83 137 71 216 -6 38 -14 57 -25 59 -8 1 -41 -24 -73 -57z"/>
<path d="M6030 2791 c-44 -12 -35 -36 30 -80 73 -48 114 -61 197 -61 109 0
119 16 43 74 -80 61 -117 76 -185 75 -33 -1 -71 -4 -85 -8z"/>
<path d="M6469 2695 c-31 -17 -59 -57 -59 -84 0 -26 -25 -34 -98 -32 -80 4
-159 -21 -211 -66 -41 -34 -101 -115 -101 -135 0 -7 29 -9 88 -6 65 3 98 10
132 27 56 30 160 128 160 153 0 10 7 18 15 18 32 0 12 -39 -58 -108 -50 -50
-80 -72 -97 -72 -26 0 -58 -15 -50 -24 3 -3 24 -2 47 1 34 4 53 18 118 80 52
51 80 71 88 65 21 -16 76 -22 102 -10 14 6 30 24 37 39 10 22 17 27 33 23 11
-4 22 -12 24 -18 8 -24 92 -93 140 -116 50 -23 55 -23 129 -11 42 7 82 17 87
23 14 14 -55 71 -132 109 -55 28 -70 31 -140 29 -126 -4 -123 -5 -123 36 0 26
-8 43 -29 65 -32 32 -62 36 -102 14z"/>
<path d="M6571 2401 c-2 -102 0 -114 28 -173 32 -70 102 -155 118 -145 10 7
18 50 28 160 7 63 -15 126 -54 161 -11 11 -21 24 -21 29 0 6 8 3 18 -6 20 -19
42 -22 42 -8 0 12 -74 71 -89 71 -6 0 -11 -5 -11 -12 0 -6 -10 -2 -23 10 -13
12 -26 22 -29 22 -3 0 -6 -49 -7 -109z"/>
<path d="M6428 2453 c-63 -67 -108 -138 -120 -192 l-13 -56 -5 74 c-3 50 -9
76 -19 79 -11 4 -12 -12 -9 -79 2 -54 8 -84 16 -87 6 -2 12 -18 12 -37 0 -18
7 -38 15 -45 21 -18 90 41 135 116 33 55 35 64 35 146 0 103 -10 120 -47 81z"/>
<path d="M8843 3156 c-73 -7 -135 -15 -138 -18 -10 -10 -5 -360 6 -472 6 -56
12 -224 14 -375 2 -150 6 -275 8 -277 10 -11 1113 -1 1124 10 9 9 10 1105 1
1119 -9 15 -23 16 -303 14 -126 -1 -275 -1 -330 -2 -55 0 -134 3 -175 7 -41 3
-134 1 -207 -6z m377 -31 c58 0 211 2 340 3 129 1 247 2 262 1 l27 -2 -4 -534
c-2 -294 -5 -536 -7 -538 -2 -3 -272 -11 -618 -18 -19 -1 -133 0 -252 1 l-218
2 0 158 c0 86 -5 236 -11 332 -12 181 -18 589 -9 591 29 8 252 15 310 10 41
-3 122 -6 180 -6z"/>
<path d="M8861 3079 c-80 -40 -93 -61 -92 -144 0 -55 5 -75 29 -113 36 -61
117 -106 171 -96 66 12 120 51 106 74 -5 8 -15 4 -30 -10 -49 -46 -155 -32
-206 26 -61 69 -60 142 1 208 37 39 40 41 113 44 90 5 127 -11 152 -64 12 -26
15 -48 10 -79 -7 -50 10 -70 25 -30 22 57 -1 150 -47 193 -20 19 -35 22 -97
22 -61 0 -83 -5 -135 -31z"/>
<path d="M9564 3080 c-55 -28 -83 -55 -105 -106 -27 -59 -27 -85 0 -142 19
-41 32 -53 70 -70 46 -21 162 -38 173 -26 4 3 4 12 1 20 -3 10 -22 14 -59 14
-170 0 -234 166 -102 263 36 27 132 36 156 14 9 -8 27 -18 40 -21 36 -12 27
20 -15 49 -46 31 -102 33 -159 5z"/>
<path d="M8893 3000 c-45 -27 -53 -75 -21 -132 29 -53 60 -60 100 -23 32 30
43 63 34 107 -13 66 -55 84 -113 48z"/>
<path d="M9570 3002 c-15 -12 -24 -33 -27 -63 -4 -38 -1 -50 22 -77 53 -64
115 -30 115 62 0 47 -4 57 -26 75 -33 26 -55 26 -84 3z"/>
<path d="M9184 2738 c-61 -54 -92 -149 -68 -207 29 -69 82 -104 174 -115 124
-15 196 81 168 226 -16 89 -73 128 -184 128 -46 0 -58 -5 -90 -32z m156 -11
c74 -26 100 -64 100 -147 0 -36 -29 -95 -58 -117 -22 -18 -99 -16 -155 3 -118
40 -120 183 -2 255 35 22 66 24 115 6z"/>
<path d="M9267 2679 c-25 -14 -47 -62 -47 -102 0 -28 5 -36 35 -50 49 -23 62
-22 96 12 70 70 0 189 -84 140z"/>
<path d="M9586 2465 c-77 -27 -118 -71 -137 -145 -33 -130 86 -243 240 -227
47 5 61 11 88 41 62 67 69 192 16 269 -43 62 -133 89 -207 62z m149 -49 c42
-28 68 -91 63 -156 -6 -77 -26 -105 -90 -125 -43 -14 -61 -15 -93 -6 -92 25
-144 87 -129 155 11 50 41 102 76 131 29 23 39 26 91 22 32 -3 69 -12 82 -21z"/>
<path d="M9613 2375 c-37 -26 -65 -81 -58 -114 7 -34 63 -81 95 -81 25 0 78
55 87 89 9 36 -8 73 -46 98 -40 27 -49 28 -78 8z"/>
<path d="M8915 2448 c-47 -28 -80 -74 -100 -141 -29 -98 -19 -132 50 -173 59
-34 108 -45 174 -37 76 9 115 46 137 131 28 113 3 171 -93 213 -69 31 -122 33
-168 7z m130 -29 c31 -11 68 -31 83 -44 24 -20 27 -31 27 -82 0 -81 -18 -118
-69 -143 -76 -37 -176 -20 -226 37 -45 51 -36 119 27 192 56 66 76 71 158 40z"/>
<path d="M8966 2334 c-48 -49 -24 -134 38 -134 62 0 109 97 67 139 -29 29 -72
27 -105 -5z"/>
<path d="M2470 3150 c-41 -4 -195 -8 -341 -9 l-267 -1 0 -260 c0 -143 -3 -263
-5 -267 -10 -17 25 -573 39 -625 4 -14 10 -15 31 -7 15 5 225 9 527 9 275 0
512 0 527 0 l25 0 11 293 c6 160 8 418 4 572 l-6 280 -45 7 c-76 10 -421 17
-500 8z m278 -37 c-23 -28 -58 -93 -58 -109 0 -27 20 -14 40 26 19 37 40 46
40 17 0 -7 9 -23 19 -36 30 -39 34 -7 6 48 -14 28 -25 53 -25 56 0 7 117 6
174 -1 l47 -7 -3 -158 c-2 -88 -6 -159 -9 -159 -16 0 -120 -131 -113 -142 5
-8 29 11 71 58 l64 69 -7 -75 c-4 -41 -10 -77 -14 -80 -5 -3 -68 -4 -142 -2
l-134 3 -18 34 c-10 19 -29 44 -42 56 -21 20 -24 20 -24 5 0 -10 14 -36 31
-57 l31 -39 -77 0 -77 0 6 78 c3 42 7 157 8 254 l3 178 109 0 c103 0 108 -1
94 -17z m-308 -47 c0 -64 19 -91 56 -82 19 5 24 2 24 -13 0 -16 -8 -20 -37
-23 l-38 -3 0 -70 0 -70 38 -3 37 -3 0 -90 0 -89 -40 0 c-38 0 -40 2 -40 30 0
20 5 30 15 30 16 0 20 15 7 24 -5 3 -18 2 -30 -1 -18 -4 -22 -13 -22 -44 0
-22 -3 -40 -7 -40 -51 -9 -51 -9 -59 57 -8 80 -26 85 -23 7 3 -55 2 -58 -22
-61 -28 -4 -51 -21 -44 -32 2 -4 31 -6 62 -4 98 6 665 5 671 0 7 -8 4 -436 -4
-508 l-7 -58 -288 0 c-274 0 -289 1 -289 18 0 15 12 21 58 28 l57 9 1 227 c0
125 -2 231 -5 235 -3 5 -130 6 -281 3 -251 -5 -275 -6 -278 -22 -2 -12 3 -18
14 -18 16 0 16 -1 1 -18 -39 -43 -2 -44 38 -2 27 28 34 30 99 30 l71 0 39 -95
c22 -52 43 -95 48 -95 4 0 8 -35 8 -78 0 -72 -2 -81 -36 -131 -23 -35 -33 -56
-26 -63 6 -6 14 -3 23 10 8 10 26 22 42 26 25 6 27 4 27 -25 l0 -32 -75 5
c-42 3 -78 7 -81 10 -3 3 4 21 15 39 21 35 28 69 13 69 -5 0 -21 -29 -37 -65
-28 -63 -31 -65 -65 -64 -31 0 -41 8 -90 69 -30 38 -60 69 -66 70 -6 0 -14 17
-18 38 -10 59 -20 454 -12 497 l8 38 30 -47 31 -47 -23 -30 c-17 -24 -19 -34
-10 -42 8 -9 15 -6 28 11 12 15 24 21 35 16 31 -11 147 6 147 22 0 8 -10 19
-22 24 -28 11 -98 75 -98 89 0 6 -4 11 -10 11 -22 0 -8 -45 25 -75 27 -26 31
-34 19 -39 -33 -13 -46 -3 -93 68 -47 73 -48 75 -55 177 -3 57 -9 134 -12 172
l-7 67 97 0 c53 0 96 -2 96 -4 0 -3 -38 -32 -85 -66 -47 -34 -85 -68 -85 -76
0 -8 3 -14 7 -14 11 0 123 79 166 117 31 28 45 33 85 33 l48 0 52 -124 c29
-69 52 -132 52 -140 0 -12 11 -16 45 -16 l45 0 0 65 0 65 -32 0 c-52 0 -75 10
-87 36 -10 24 -10 24 44 24 l55 0 0 55 c0 54 0 55 30 55 30 0 30 -1 30 -54z
m-30 -596 l0 -40 40 0 c33 0 40 -3 40 -20 0 -16 -7 -20 -34 -20 -38 0 -46 -12
-46 -71 0 -28 -4 -39 -15 -39 -10 0 -15 10 -15 28 0 15 -4 32 -8 38 -10 15
-70 26 -77 14 -11 -17 -21 -11 -38 24 l-16 35 52 3 c50 3 52 4 55 33 5 47 10
55 37 55 23 0 25 -4 25 -40z m0 -269 l0 -50 45 -7 c34 -5 45 -11 45 -24 0 -14
-13 -19 -62 -26 l-63 -9 3 -32 c2 -30 0 -33 -28 -33 -22 0 -28 4 -24 15 4 8 3
31 0 50 -5 26 -12 35 -26 35 -11 0 -20 5 -20 10 0 6 13 10 29 10 53 0 61 8 61
61 0 42 3 49 20 49 17 0 20 -7 20 -49z"/>
<path d="M2700 2515 c-22 -27 -71 -138 -67 -154 2 -9 21 19 42 62 37 72 42 77
71 77 25 0 33 -5 38 -22 3 -13 28 -49 56 -81 67 -78 66 -95 -10 -189 -33 -40
-60 -76 -60 -80 0 -25 24 -7 77 56 59 71 68 92 64 157 -1 8 -22 40 -48 70 -25
30 -52 69 -60 87 -12 28 -18 32 -52 32 -22 0 -44 -6 -51 -15z"/>
<path d="M2105 2490 c-11 -5 -49 -37 -84 -73 -66 -67 -79 -99 -81 -188 0 -30
7 -42 43 -75 24 -21 54 -54 67 -71 26 -37 40 -42 40 -16 0 10 -30 46 -66 80
l-65 63 7 58 c6 54 11 61 80 132 l72 74 44 -89 c29 -60 44 -83 46 -69 3 18
-62 170 -77 178 -3 2 -15 0 -26 -4z"/>
<path d="M2041 2304 c-12 -15 -21 -39 -21 -54 0 -33 35 -80 59 -80 23 0 68 48
76 82 5 21 1 33 -19 52 -33 34 -69 33 -95 0z"/>
<path d="M5356 3069 c-36 -29 -76 -113 -76 -162 0 -50 33 -113 73 -138 26 -17
44 -20 104 -16 87 5 118 22 145 84 24 53 20 124 -8 172 -24 41 -85 72 -152 78
-49 4 -61 2 -86 -18z m166 -29 c33 -16 68 -83 68 -131 0 -45 -39 -111 -70
-120 -39 -11 -129 -10 -151 1 -23 13 -59 81 -59 112 0 42 20 97 47 129 26 30
30 31 82 26 31 -3 68 -11 83 -17z"/>
<path d="M5422 2993 c-17 -7 -42 -57 -42 -85 0 -61 68 -90 110 -48 54 54 -1
160 -68 133z"/>
<path d="M5060 2789 c-42 -17 -70 -50 -85 -103 -36 -120 2 -199 108 -225 101
-24 177 24 196 126 19 98 -27 167 -131 198 -59 17 -55 17 -88 4z m128 -51 c55
-26 76 -66 68 -126 -14 -101 -75 -144 -173 -121 -85 20 -111 79 -82 184 26 93
82 112 187 63z"/>
<path d="M5069 2681 c-36 -36 -37 -70 -3 -110 66 -79 158 4 109 98 -25 50 -64
54 -106 12z"/>
<path d="M5383 2483 c-40 -19 -83 -107 -90 -183 -5 -50 -3 -59 22 -88 53 -63
114 -80 191 -51 126 48 163 195 69 277 -54 48 -143 69 -192 45z m124 -34 c36
-12 80 -58 89 -95 25 -97 -91 -204 -187 -173 -19 6 -47 25 -63 43 -25 28 -28
36 -23 81 6 61 43 140 71 154 22 10 57 7 113 -10z"/>
<path d="M5410 2380 c-41 -41 -38 -108 5 -128 38 -18 59 -15 83 11 62 66 -24
181 -88 117z"/>
<path d="M4772 2470 c-45 -19 -86 -80 -97 -147 -7 -44 17 -117 52 -155 100
-111 286 -13 271 143 -4 40 -12 57 -39 85 -64 66 -137 95 -187 74z m125 -52
c52 -31 73 -65 73 -115 0 -90 -55 -153 -133 -153 -57 0 -90 22 -116 78 -34 71
-24 132 30 185 36 36 42 39 76 32 21 -4 53 -16 70 -27z"/>
<path d="M4779 2361 c-26 -26 -30 -36 -24 -64 8 -41 39 -67 80 -67 62 0 88 74
43 124 -37 40 -64 42 -99 7z"/>
<path d="M10140 3109 c-10 -38 -5 -760 6 -860 3 -30 1 -88 -5 -128 -6 -41 -10
-76 -7 -78 5 -5 753 -17 995 -15 106 0 147 4 156 14 9 10 10 51 4 173 -19 373
-29 639 -29 778 l0 147 -177 2 c-98 2 -348 3 -556 3 l-378 0 -9 -36z m197 1
l43 0 -6 -82 c-4 -46 -9 -86 -13 -89 -3 -4 -53 -9 -110 -11 l-103 -5 6 81 c11
124 8 120 79 112 33 -3 80 -6 104 -6z m333 -84 l0 -93 -61 -7 c-34 -3 -77 -6
-95 -6 -32 0 -32 1 -36 53 -1 28 -2 73 0 100 l3 47 95 0 94 0 0 -94z m71 92
c1 -2 5 -120 8 -263 5 -224 8 -259 21 -256 8 2 120 5 248 7 l232 3 0 -29 0
-28 -147 -1 c-82 -1 -179 -6 -217 -12 -38 -5 -77 -7 -87 -4 -33 11 -39 -25
-39 -254 0 -211 -1 -221 -19 -221 -53 0 -52 -5 -51 249 0 130 1 241 0 246 0 6
-95 9 -271 7 l-270 -3 3 28 c3 24 8 29 43 34 21 4 73 2 115 -3 99 -12 370 -5
379 11 4 6 5 119 3 251 l-5 240 27 0 c14 0 27 -1 27 -2z m262 -91 c3 -51 4
-93 3 -94 -1 -1 -38 -5 -81 -8 -110 -8 -145 -14 -145 -25 0 -11 65 -13 163 -3
46 4 67 10 67 19 0 8 4 14 10 14 6 0 7 33 3 90 -6 87 -5 90 16 90 20 0 21 -4
21 -95 0 -68 4 -97 13 -100 6 -2 47 -7 90 -10 57 -5 77 -10 77 -21 0 -8 -8
-14 -17 -15 -27 -1 -155 -17 -178 -22 -19 -4 -20 -11 -17 -111 3 -100 2 -106
-17 -106 -17 0 -20 9 -25 68 -4 37 -10 87 -14 112 l-7 45 -87 3 c-49 1 -88 -1
-88 -6 0 -11 58 -22 117 -22 40 0 42 -2 47 -32 3 -18 7 -62 8 -98 l3 -65 -94
-8 c-52 -4 -95 -6 -96 -5 -2 2 -5 114 -7 251 l-3 247 116 -1 116 -1 6 -91z
m237 -8 l0 -90 -77 3 -78 3 -9 42 c-5 23 -5 62 -2 87 l7 45 72 3 c40 2 75 2
80 0 4 -2 7 -44 7 -93z m-780 -9 c0 -120 -1 -119 123 -113 86 4 87 4 87 -19 0
-23 -1 -23 -100 -20 -129 5 -132 2 -130 -97 3 -121 3 -121 -25 -121 -23 0 -25
4 -25 44 0 23 -3 71 -6 105 l-7 62 -36 -2 c-98 -6 -182 1 -188 17 -10 27 10
34 120 38 60 2 110 5 112 7 4 4 13 112 14 167 1 29 4 32 31 32 l30 0 0 -100z
m785 -368 c-3 -3 -48 -8 -99 -10 l-93 -4 -7 97 c-4 53 -6 98 -4 100 2 2 46 7
98 12 l95 8 8 -98 c5 -54 6 -102 2 -105z m-589 183 c16 -5 27 -167 11 -177 -6
-4 -55 -8 -107 -8 l-95 0 2 42 c1 24 2 66 2 95 l1 52 58 3 c53 3 103 0 128 -7z
m-291 -91 c4 -47 6 -86 4 -88 -2 -1 -50 -1 -106 2 l-103 4 0 84 0 84 99 -1 99
-1 7 -84z m-2 -301 c4 -58 4 -109 1 -112 -6 -6 -193 -6 -198 0 -2 2 -6 50 -8
106 l-4 102 76 4 c41 1 87 4 101 5 l26 2 6 -107z m57 -2 l0 -108 68 -6 c37 -4
91 -7 120 -7 47 0 53 -3 62 -26 6 -14 10 -27 10 -28 0 -2 -53 -7 -119 -11
l-119 -7 -7 -89 c-5 -74 -9 -90 -22 -87 -13 2 -16 18 -14 96 l2 92 -115 0
c-107 0 -115 1 -121 21 -10 30 -2 33 57 22 29 -6 78 -7 108 -4 l55 6 -4 123
c-3 119 -3 122 18 122 20 0 21 -5 21 -109z m252 7 c-2 -57 -5 -103 -5 -103 -1
0 -53 1 -114 3 l-113 3 0 100 0 99 118 0 117 0 -3 -102z m378 -12 c0 -56 4
-107 9 -114 6 -10 34 -14 105 -13 75 1 96 -2 96 -12 0 -11 -26 -16 -100 -20
-55 -3 -105 -9 -110 -12 -6 -3 -10 -51 -10 -106 0 -90 -2 -99 -19 -99 -22 0
-31 40 -31 138 0 41 -4 64 -12 67 -7 2 -53 6 -102 7 -61 2 -91 7 -94 16 -2 8
13 13 55 14 95 3 127 5 140 6 8 2 10 33 6 115 l-6 114 37 0 36 0 0 -101z m204
43 c11 -105 8 -137 -11 -141 -10 -3 -52 -4 -93 -4 l-75 1 -3 97 -3 97 33 4
c18 2 58 5 89 5 l56 2 7 -61z m-292 -46 c2 -54 4 -99 3 -99 0 -1 -40 -4 -90
-5 l-90 -4 -3 98 c-3 91 -1 98 15 94 10 -3 38 -2 63 3 25 4 57 8 72 9 l26 1 4
-97z m4 -197 c1 0 4 -38 6 -83 l3 -83 -97 0 -98 0 0 29 c0 15 3 56 6 89 l7 62
86 -6 c47 -4 87 -7 87 -8z m298 -72 c3 -48 5 -88 4 -89 -2 -2 -49 -5 -105 -7
l-103 -4 0 88 0 87 33 4 c17 2 62 5 98 5 l66 2 7 -86z m-901 66 c13 0 17 -9
17 -42 0 -24 -3 -60 -6 -80 l-7 -38 -98 0 c-54 0 -101 4 -104 10 -3 6 -3 41 1
80 l6 69 52 4 c28 2 67 3 86 1 19 -2 43 -4 53 -4z m313 -31 c-3 -17 -6 -51 -6
-74 0 -37 -3 -44 -25 -49 -28 -7 -184 -10 -191 -3 -2 2 -1 36 2 75 l7 71 36 4
c20 2 69 4 110 5 l74 2 -7 -31z"/>
<path d="M683 3050 c-27 -11 -72 -80 -90 -139 -16 -54 -5 -106 33 -151 56 -65
139 -78 231 -36 71 33 88 63 88 151 0 87 -27 138 -89 166 -44 20 -134 24 -173
9z m162 -44 c19 -8 41 -28 50 -45 19 -37 23 -127 7 -158 -27 -50 -153 -80
-212 -50 -35 18 -70 74 -70 114 0 44 45 131 73 143 34 14 114 12 152 -4z"/>
<path d="M721 2934 c-48 -61 -4 -157 66 -140 32 9 54 59 42 100 -11 37 -26 53
-60 61 -21 5 -31 1 -48 -21z"/>
<path d="M1287 3039 c-36 -21 -67 -108 -67 -185 0 -62 3 -76 29 -110 45 -63
74 -77 145 -72 79 7 139 37 158 80 51 110 13 234 -86 279 -46 21 -149 25 -179
8z m173 -51 c52 -27 80 -74 80 -136 0 -61 -24 -100 -73 -123 -81 -36 -157 -19
-196 44 -35 57 -25 166 21 214 29 32 106 32 168 1z"/>
<path d="M1332 2927 c-28 -29 -28 -70 -1 -108 27 -38 69 -39 98 -3 60 76 -32
181 -97 111z"/>
<path d="M980 2712 c-29 -14 -36 -24 -43 -62 -4 -25 -6 -81 -4 -126 5 -125 53
-184 146 -184 59 0 143 41 177 86 26 33 29 46 29 108 0 82 -25 137 -79 174
-27 18 -45 22 -112 22 -53 -1 -90 -6 -114 -18z m175 -22 c13 0 36 -13 52 -30
111 -118 34 -280 -133 -280 -85 0 -122 70 -112 211 3 36 11 66 20 75 15 16
111 35 136 28 8 -2 24 -4 37 -4z"/>
<path d="M1078 2604 c-32 -17 -48 -43 -48 -79 0 -20 8 -29 35 -41 59 -24 84
-19 101 22 16 38 12 68 -14 97 -18 21 -38 21 -74 1z"/>
<path d="M680 2406 c-48 -32 -70 -58 -86 -103 -29 -83 -13 -163 45 -218 30
-28 38 -30 100 -29 78 1 114 17 161 70 30 35 32 41 27 94 -11 121 -74 200
-165 207 -37 2 -55 -2 -82 -21z m165 -58 c42 -45 65 -139 44 -176 -35 -64
-161 -103 -214 -68 -47 31 -67 75 -61 135 6 61 25 94 77 129 48 34 112 25 154
-20z"/>
<path d="M715 2295 c-31 -30 -32 -66 -2 -101 21 -23 28 -26 61 -20 60 11 71
71 23 124 -27 29 -52 28 -82 -3z"/>
<path d="M1330 2389 c-91 -38 -140 -192 -91 -288 42 -82 202 -101 282 -34 44
38 62 79 61 145 -1 59 -17 101 -49 130 -44 40 -157 66 -203 47z m114 -49 c22
-5 53 -22 69 -39 26 -26 30 -37 31 -88 1 -43 -4 -65 -19 -85 -40 -53 -114 -71
-198 -47 -88 24 -103 141 -31 236 21 28 31 33 67 33 23 0 60 -5 81 -10z"/>
<path d="M1351 2276 c-24 -28 -24 -79 -1 -109 42 -53 110 -22 110 51 0 25 -7
45 -18 55 -23 21 -75 22 -91 3z"/>
<path d="M4730 2993 c-16 -16 -33 -42 -36 -60 -5 -27 -1 -37 25 -63 39 -39 84
-39 114 1 24 34 16 77 -23 119 -34 37 -42 37 -80 3z"/>
<path d="M3884 2189 c-10 -11 -26 -18 -36 -16 -21 6 -30 -5 -22 -27 9 -24 41
-19 70 9 31 31 33 31 60 -2 22 -28 23 -28 52 -10 39 22 59 22 67 -2 10 -33 42
-35 76 -7 37 31 39 31 72 6 37 -29 49 -4 13 27 -33 28 -59 29 -97 3 l-28 -21
-21 21 c-23 23 -72 27 -89 6 -10 -12 -16 -10 -36 10 -30 29 -56 31 -81 3z"/>
<path d="M7920 2181 c0 -5 6 -14 14 -20 13 -11 12 -17 -5 -46 -27 -46 -22 -79
12 -83 19 -2 33 5 53 29 l27 32 39 -32 c46 -37 56 -38 87 -9 l23 21 23 -21
c29 -27 58 -28 82 -2 22 24 38 25 55 5 7 -8 22 -15 33 -15 19 0 19 2 -8 30
-34 35 -57 38 -85 10 -11 -11 -26 -20 -33 -20 -8 0 -22 9 -32 20 -23 26 -43
25 -71 -1 l-22 -21 -42 31 c-46 33 -69 31 -90 -9 -6 -11 -19 -20 -30 -20 -17
0 -18 3 -9 27 6 16 17 35 24 44 13 13 12 18 -1 37 -15 22 -44 30 -44 13z"/>
<path d="M2131 1789 c-9 -4 -56 -10 -103 -14 -47 -4 -92 -11 -99 -16 -19 -12
41 -11 156 1 49 5 90 8 92 6 2 -1 -4 -29 -13 -61 -28 -108 -32 -135 -23 -141
12 -7 24 26 45 124 17 80 18 82 47 82 20 0 39 -10 59 -30 15 -16 31 -30 33
-30 3 0 29 -22 58 -50 57 -55 70 -59 107 -30 14 11 29 20 33 20 20 0 125 73
130 89 4 15 -10 19 -97 31 -118 15 -400 28 -425 19z m409 -35 l81 -7 -46 -32
c-25 -18 -68 -40 -96 -49 l-51 -17 -62 57 c-33 32 -63 60 -66 62 -5 4 39 2
240 -14z"/>
<path d="M2935 1760 c-4 -6 7 -10 24 -10 l31 0 -2 -215 c-2 -118 -6 -215 -9
-215 -9 0 -58 -65 -61 -81 -2 -7 3 -14 10 -15 6 -1 15 -2 19 -3 3 0 -4 -12
-17 -25 -14 -16 -20 -31 -16 -42 6 -15 13 -9 41 31 l35 49 0 -36 c0 -19 3 -71
6 -114 l6 -79 -54 58 c-29 31 -57 57 -62 57 -5 0 -18 7 -28 17 -10 9 -21 13
-24 10 -4 -3 34 -46 85 -93 72 -69 91 -93 91 -115 0 -35 -3 -37 -97 -55 -43
-8 -86 -22 -95 -32 -9 -9 -29 -51 -43 -92 -38 -108 -38 -110 -26 -110 13 0 36
44 46 90 4 19 17 52 29 72 22 38 45 48 152 60 l31 4 6 -123 c4 -67 4 -129 1
-138 -5 -11 -24 -15 -78 -17 -39 -1 -89 -3 -111 -4 -22 -2 -122 -5 -222 -7
-207 -5 -199 -10 -123 76 23 26 40 50 37 53 -11 12 -47 -18 -89 -73 -43 -57
-45 -58 -99 -61 l-56 -3 -28 93 c-15 51 -32 97 -36 102 -21 24 -19 -10 5 -88
14 -46 26 -89 26 -95 0 -7 -25 -11 -67 -11 -49 -1 -63 -3 -51 -10 22 -13 595
-13 727 0 83 9 106 8 113 -2 5 -9 8 -10 8 -1 0 6 15 13 33 15 l32 3 -3 175
c-1 96 -7 233 -12 303 -8 89 -8 133 -1 141 6 7 8 15 6 18 -11 10 -16 134 -15
341 l0 207 -34 0 c-19 0 -38 -4 -41 -10z"/>
<path d="M1835 1750 c-3 -5 -3 -36 0 -67 4 -32 2 -158 -5 -280 -11 -221 -9
-274 20 -643 6 -69 13 -140 16 -157 l5 -33 109 0 c61 0 110 4 110 9 0 9 -81
21 -152 21 -46 0 -46 0 -52 38 -24 161 -30 307 -31 687 l0 420 23 -1 c12 0 22
3 22 8 0 11 -58 10 -65 -2z"/>
<path d="M2748 1754 c-5 -4 -8 -23 -8 -43 -1 -32 -2 -34 -14 -18 -7 9 -19 17
-25 17 -19 0 -91 -40 -91 -50 0 -15 38 -12 65 6 23 15 25 15 32 -2 10 -25 9
-233 -1 -261 -6 -18 -5 -23 7 -23 23 0 31 55 25 181 -3 60 -3 109 1 109 11 0
61 -145 61 -177 0 -22 5 -33 14 -33 8 0 16 -6 19 -12 3 -10 7 -10 17 -1 9 9
23 8 58 -2 25 -8 50 -11 55 -8 15 9 -33 32 -85 39 -45 6 -47 8 -54 48 -4 22
-7 44 -6 49 1 4 -3 7 -9 7 -6 0 -9 7 -5 15 3 8 0 15 -5 15 -6 0 -9 9 -6 20 3
11 1 20 -5 20 -6 0 -8 9 -5 20 3 11 1 23 -5 26 -5 3 -7 12 -4 20 3 8 1 14 -4
14 -5 0 -10 7 -12 16 -2 9 -6 12 -10 8z"/>
<path d="M2615 1598 c-46 -39 -125 -194 -125 -242 0 -42 16 -86 31 -86 12 0
57 45 106 107 24 31 34 56 43 116 11 77 7 137 -10 137 -5 0 -26 -14 -45 -32z"/>
<path d="M2260 1512 c0 -56 5 -88 18 -114 20 -39 113 -149 122 -143 3 2 3 52
0 112 -5 96 -8 112 -32 147 -27 39 -73 76 -95 76 -9 0 -13 -22 -13 -78z"/>
<path d="M2785 1311 c-27 -4 -66 -15 -85 -25 -44 -24 -100 -66 -100 -76 0 -4
36 -11 80 -15 l81 -7 76 58 c63 48 72 59 57 65 -22 9 -40 9 -109 0z"/>
<path d="M1890 1296 c0 -8 7 -16 15 -20 8 -3 15 -10 15 -15 0 -15 57 -71 74
-71 8 0 20 -8 25 -17 6 -10 11 -14 11 -9 0 5 11 -1 25 -14 14 -13 28 -20 32
-16 4 4 -20 32 -52 62 l-60 55 56 -31 c53 -29 62 -30 148 -27 50 1 95 7 101
13 7 7 -9 25 -52 57 -51 38 -71 47 -105 47 -42 0 -143 -33 -154 -51 -3 -5 -18
4 -34 21 -31 33 -45 38 -45 16z"/>
<path d="M2436 1239 c-42 -12 -76 -48 -76 -81 0 -44 55 -98 107 -105 37 -5 45
-2 73 25 16 17 30 39 30 50 0 26 -25 86 -42 99 -20 16 -60 22 -92 12z"/>
<path d="M2580 1111 c0 -9 114 -87 168 -115 37 -19 128 -24 145 -7 20 20 -10
61 -66 86 -67 31 -247 57 -247 36z"/>
<path d="M2209 1061 c-26 -4 -55 -13 -65 -21 -43 -32 -104 -95 -104 -107 0
-17 122 -18 153 -1 36 19 117 111 117 133 0 6 -38 5 -101 -4z"/>
<path d="M2378 943 c-24 -51 -33 -86 -36 -141 -2 -41 0 -78 5 -83 12 -12 62
26 73 56 14 36 15 228 2 233 -7 2 -26 -27 -44 -65z"/>
<path d="M2557 983 c-11 -10 -8 -117 4 -151 9 -27 90 -102 111 -102 4 0 8 33
8 73 0 82 -12 107 -74 156 -44 35 -40 33 -49 24z"/>
<path d="M1467 1753 c-3 -2 -216 -5 -473 -6 l-469 -2 -3 -245 c-1 -135 3 -316
9 -402 6 -86 11 -221 12 -300 l1 -144 200 -1 c111 -1 257 -4 326 -6 134 -5
487 7 497 17 11 10 9 1067 -2 1076 -12 9 -92 20 -98 13z m-664 -49 c45 -6 45
-7 40 -39 -3 -18 2 -57 10 -86 9 -30 21 -84 27 -121 7 -38 16 -68 20 -68 5 0
23 18 40 40 36 46 43 48 72 20 25 -23 40 -25 70 -9 16 9 23 7 35 -10 19 -27
64 -27 123 0 48 23 110 40 110 32 0 -3 -16 -23 -35 -44 -49 -54 -53 -82 -22
-126 l26 -36 -25 -29 c-28 -34 -32 -83 -8 -109 15 -17 15 -20 0 -43 -26 -40
-20 -77 19 -118 20 -21 37 -38 40 -38 13 0 2 32 -20 58 -29 35 -31 52 -10 93
15 28 14 32 -5 59 -19 27 -20 31 -6 59 9 16 20 33 26 36 16 10 11 48 -10 75
-27 35 -25 45 20 102 22 28 40 57 40 65 0 34 -67 27 -168 -18 l-53 -23 -25 28
c-18 18 -31 25 -43 20 -41 -17 -59 -16 -70 5 -16 28 -43 26 -80 -5 -35 -29
-31 -34 -56 76 -9 41 -19 83 -21 92 -8 26 39 68 75 68 21 0 42 -12 75 -45 26
-25 49 -45 52 -45 4 0 28 18 54 40 26 22 55 40 64 40 9 0 46 -29 81 -65 36
-36 73 -65 83 -65 17 0 61 41 113 106 l25 31 38 -31 37 -32 -61 -81 c-33 -45
-60 -84 -60 -88 0 -9 74 -108 93 -124 32 -26 21 -69 -28 -117 -25 -24 -45 -52
-45 -63 0 -22 66 -84 81 -76 21 14 5 -20 -51 -106 -56 -85 -64 -109 -38 -109
6 0 30 -15 54 -33 40 -30 43 -35 44 -79 0 -47 -15 -72 -30 -48 -8 14 -155 80
-178 80 -33 0 1 -27 79 -61 134 -60 124 -69 -88 -71 -98 -1 -216 -2 -261 -3
l-84 -1 49 42 48 43 33 -20 c37 -21 52 -24 52 -9 0 15 -61 50 -87 50 -13 0
-43 -20 -74 -50 -44 -43 -57 -50 -90 -50 -32 0 -39 4 -39 19 0 23 -75 121 -94
121 -7 0 -38 -27 -70 -60 -32 -33 -65 -60 -73 -60 -8 0 -28 9 -44 21 -22 15
-29 28 -29 53 0 17 4 36 8 41 5 6 16 31 26 57 17 47 17 47 -6 80 -13 18 -27
36 -32 39 -12 9 -25 151 -25 284 l0 110 24 -40 c28 -46 32 -82 10 -111 -16
-21 -20 -54 -7 -54 14 0 42 69 42 106 0 20 -11 51 -25 74 l-25 40 25 38 c40
61 41 89 4 175 -31 72 -49 95 -49 63 0 -7 11 -39 25 -70 31 -70 31 -101 3
-146 l-22 -35 -9 125 c-11 181 -18 170 112 170 59 0 129 -3 154 -6z"/>
<path d="M863 935 c-24 -24 -43 -46 -43 -49 0 -17 33 -2 67 30 41 39 40 40 85
-27 17 -26 14 -26 78 13 16 11 23 8 48 -15 35 -34 56 -34 95 -1 31 26 47 27
105 9 36 -12 26 14 -13 31 -48 20 -69 18 -103 -11 -36 -30 -44 -31 -67 -5 -21
23 -72 27 -100 6 -17 -12 -22 -10 -47 25 -15 22 -36 39 -46 38 -9 -1 -36 -20
-59 -44z"/>
<path d="M8105 1764 c-11 -2 -190 -5 -397 -6 -207 -2 -380 -6 -383 -10 -22
-21 -26 -161 -15 -578 5 -245 13 -462 16 -482 l6 -37 131 -3 c73 -2 184 2 247
9 63 7 228 12 365 11 138 0 260 2 271 6 19 6 21 19 32 199 7 105 17 224 23
262 8 47 9 128 4 250 -5 99 -8 226 -7 283 l2 103 -138 -2 c-75 -2 -146 -4
-157 -5z m250 -20 c18 -5 20 -14 20 -112 1 -59 2 -197 4 -307 1 -111 -3 -227
-9 -260 -6 -33 -13 -128 -17 -211 l-6 -150 -36 -3 c-20 -2 -146 -4 -281 -5
-135 -2 -342 -7 -461 -11 l-216 -8 -6 213 c-4 117 -8 274 -8 349 -1 75 -4 165
-8 201 -8 87 6 272 22 282 6 4 46 7 87 7 58 -1 68 -3 43 -9 -49 -11 -59 -24
-93 -111 -34 -90 -39 -156 -12 -187 32 -38 251 -74 240 -39 -3 6 -18 13 -34
15 -68 5 -147 26 -170 44 -29 23 -31 57 -8 125 34 104 76 134 159 119 76 -15
137 -109 120 -187 -8 -34 9 -39 26 -8 15 28 3 101 -23 145 -25 42 -93 84 -138
84 -18 0 -31 3 -28 6 4 3 118 6 255 5 136 0 291 4 343 8 122 10 210 12 235 5z"/>
<path d="M8153 1703 c-67 -5 -111 -44 -141 -126 -29 -77 -29 -128 1 -154 65
-58 211 -70 263 -22 58 54 78 143 46 206 -23 43 -85 104 -105 101 -7 -1 -36
-3 -64 -5z m95 -49 c12 -8 32 -34 43 -57 19 -37 20 -46 10 -93 -16 -69 -46
-96 -113 -101 -43 -4 -63 1 -108 24 -54 27 -55 29 -54 69 1 52 49 152 78 164
36 15 120 11 144 -6z"/>
<path d="M8142 1614 c-52 -36 -69 -121 -30 -148 34 -24 54 -20 93 19 48 49 49
97 3 125 -40 24 -38 24 -66 4z"/>
<path d="M7490 1612 c-16 -17 -32 -46 -36 -67 -6 -33 -4 -41 16 -57 37 -30 87
-23 126 16 42 42 43 65 5 105 -37 40 -73 41 -111 3z"/>
<path d="M7831 1233 c-53 -64 -38 -123 33 -123 38 0 54 9 77 46 25 42 19 68
-24 95 -44 26 -51 24 -86 -18z"/>
<path d="M7677 1200 c-23 -87 95 -182 207 -167 59 8 120 62 128 112 5 32 -20
23 -40 -14 -59 -109 -235 -81 -251 40 -7 48 -34 66 -44 29z"/>
<path d="M8095 1066 c-43 -19 -84 -66 -91 -104 -10 -47 18 -42 40 8 23 53 51
70 115 71 54 2 91 -16 115 -54 13 -21 -7 -123 -30 -148 -21 -23 -106 -43 -150
-34 -25 4 -41 15 -52 36 -20 35 -32 37 -32 6 0 -13 13 -36 29 -52 29 -26 33
-28 101 -23 79 6 112 24 143 77 20 33 27 109 14 151 -18 60 -134 98 -202 66z"/>
<path d="M7480 1053 c-37 -7 -90 -51 -106 -89 -16 -39 -19 -130 -4 -139 6 -3
10 -15 10 -27 0 -26 62 -88 89 -88 32 0 25 24 -12 42 -26 13 -36 26 -48 69
-10 32 -14 73 -12 102 4 41 10 51 41 72 25 17 50 25 79 25 44 0 61 21 27 34
-16 6 -23 6 -64 -1z"/>
<path d="M8102 975 c-17 -14 -34 -40 -37 -57 -6 -26 -3 -34 16 -49 13 -10 41
-21 62 -24 53 -9 77 13 77 72 0 78 -60 107 -118 58z"/>
<path d="M9627 1703 c-4 -3 18 -32 47 -64 64 -68 74 -105 50 -175 -17 -50 -78
-138 -103 -149 -8 -3 -15 -4 -15 -3 -1 2 -18 23 -37 48 -20 25 -47 64 -60 87
l-24 42 32 75 c38 94 24 112 -17 22 -46 -100 -41 -124 53 -248 l50 -67 29 22
c38 28 104 127 118 175 14 51 13 76 -6 120 -23 55 -101 132 -117 115z"/>
<path d="M9566 1576 c-48 -48 -24 -126 38 -126 73 0 112 72 64 118 -38 35 -73
38 -102 8z"/>
<path d="M10758 1663 c-47 -51 -62 -92 -65 -188 -5 -111 6 -134 42 -90 42 50
75 126 75 171 0 56 -11 134 -19 134 -4 0 -19 -12 -33 -27z"/>
<path d="M10463 1624 c-11 -30 7 -137 31 -178 26 -45 63 -82 72 -73 10 10 16
99 9 145 -4 30 -17 56 -42 83 -38 41 -60 49 -70 23z"/>
<path d="M11029 1491 c-55 -11 -117 -52 -191 -127 -71 -71 -87 -102 -45 -89
12 4 58 9 102 11 89 4 77 -4 184 124 l45 53 -23 18 c-13 11 -26 18 -30 18 -3
-1 -22 -4 -42 -8z"/>
<path d="M10177 1404 c-10 -10 5 -37 47 -82 55 -59 115 -77 229 -67 95 7 110
20 60 52 -16 10 -44 34 -64 54 -20 20 -51 39 -69 42 -41 9 -195 9 -203 1z"/>
<path d="M10620 1324 c-51 -22 -70 -43 -70 -78 1 -35 18 -61 57 -88 69 -45
158 9 145 88 -4 26 -65 94 -83 94 -8 -1 -30 -8 -49 -16z"/>
<path d="M10845 1189 c-27 -10 -49 -23 -47 -29 4 -19 66 -70 116 -96 41 -21
60 -25 105 -22 65 5 114 26 119 50 4 19 -42 67 -93 99 -38 24 -130 23 -200 -2z"/>
<path d="M10300 1168 c-49 -13 -110 -74 -110 -110 0 -23 5 -28 36 -34 113 -21
241 24 295 103 17 24 29 43 27 44 -33 6 -222 4 -248 -3z"/>
<path d="M10567 1080 c-83 -93 -137 -210 -123 -266 15 -57 95 -5 134 86 21 50
38 195 24 204 -5 3 -21 -8 -35 -24z"/>
<path d="M10712 1087 c-14 -18 -23 -127 -13 -169 10 -42 93 -146 128 -159 43
-16 53 -3 53 70 0 100 -22 161 -74 209 -57 53 -81 65 -94 49z"/>
<path d="M8865 975 c-35 -34 -34 -86 1 -114 56 -44 104 -13 104 66 0 37 -4 44
-30 58 -39 20 -47 19 -75 -10z"/>
<path d="M9119 386 c-2 -3 -60 -7 -128 -10 -69 -3 -130 -11 -137 -17 -34 -28
-12 -32 154 -25 92 4 287 10 434 14 146 4 270 11 274 15 21 21 -42 27 -307 27
-157 0 -288 -2 -290 -4z"/>
<path d="M12 2300 l1 -385 15 108 c13 92 14 121 3 202 -11 76 -11 113 -1 193
14 106 10 217 -8 248 -9 14 -11 -83 -10 -366z"/>
</g>
</svg>
